<?xml version="1.0" encoding="UTF-8" standalone="no"?>
<!-- Created with Inkscape (http://www.inkscape.org/) -->

<svg
   width="20mm"
   height="10mm"
   viewBox="0 0 20 10"
   version="1.1"
   id="svg1"
   inkscape:version="1.3 (0e150ed6c4, 2023-07-21)"
   sodipodi:docname="ESpanix_2x1.svg"
   xmlns:inkscape="http://www.inkscape.org/namespaces/inkscape"
   xmlns:sodipodi="http://sodipodi.sourceforge.net/DTD/sodipodi-0.dtd"
   xmlns="http://www.w3.org/2000/svg"
   xmlns:svg="http://www.w3.org/2000/svg">
  <sodipodi:namedview
     id="namedview1"
     pagecolor="#ffffff"
     bordercolor="#000000"
     borderopacity="0.25"
     inkscape:showpageshadow="2"
     inkscape:pageopacity="0.0"
     inkscape:pagecheckerboard="0"
     inkscape:deskcolor="#d1d1d1"
     inkscape:document-units="mm"
     inkscape:zoom="4.1335578"
     inkscape:cx="32.296633"
     inkscape:cy="23.224545"
     inkscape:window-width="1866"
     inkscape:window-height="1270"
     inkscape:window-x="989"
     inkscape:window-y="55"
     inkscape:window-maximized="0"
     inkscape:current-layer="layer1" />
  <defs
     id="defs1">
    <clipPath
       id="D">
      <path
         d="M 0,454 H 2551.18 V 0 H 0 Z"
         transform="translate(-170.866,-125.406)"
         id="path1" />
    </clipPath>
    <clipPath
       id="N">
      <path
         d="M 0,454 H 2551.18 V 0 H 0 Z"
         transform="translate(-354.768,-217.429)"
         id="path6" />
    </clipPath>
    <clipPath
       id="P">
      <path
         d="M 0,454 H 2551.18 V 0 H 0 Z"
         transform="translate(-520.875,-252.42)"
         id="path7" />
    </clipPath>
    <clipPath
       id="R">
      <path
         d="M 0,454 H 2551.18 V 0 H 0 Z"
         transform="translate(-657.992,-150.645)"
         id="path8" />
    </clipPath>
    <clipPath
       id="T">
      <path
         d="M 0,454 H 2551.18 V 0 H 0 Z"
         transform="translate(-836.162,-149.152)"
         id="path9" />
    </clipPath>
    <clipPath
       id="V">
      <path
         d="M 0,454 H 2551.18 V 0 H 0 Z"
         transform="translate(-947.887,-238.979)"
         id="path10" />
    </clipPath>
    <clipPath
       id="X">
      <path
         d="M 0,454 H 2551.18 V 0 H 0 Z"
         id="path11" />
    </clipPath>
    <clipPath
       id="Z">
      <path
         d="M 0,454 H 2551.18 V 0 H 0 Z"
         transform="translate(-1063.84,-238.979)"
         id="path12" />
    </clipPath>
  </defs>
  <g
     inkscape:label="Capa 1"
     inkscape:groupmode="layer"
     id="layer1">
    <g
       id="g2"
       transform="matrix(0.12501002,0,0,0.12501002,-3.2091307,-13.562738)">
      <g
         transform="matrix(0.15066793,0,0,-0.15066793,33.586553,157.13094)"
         id="g14"
         style="fill:#1a5586;fill-opacity:1">
        <path
           d="m 0,0 h -2.852 c -0.09,0.04 -0.177,0.108 -0.27,0.116 -2.318,0.2 -4.455,0.997 -6.482,2.075 -2.915,1.552 -5.373,3.675 -7.409,6.271 -1.983,2.53 -3.592,5.294 -4.779,8.28 -2.124,5.346 -3.18,10.888 -2.893,16.663 0.137,2.744 0.513,5.442 1.281,8.088 1.135,3.914 2.91,7.481 5.613,10.554 2.508,2.853 5.578,4.79 9.3,5.654 0.357,0.083 0.733,0.148 1.057,0.309 1.891,0.94 2.783,2.609 3.063,4.588 0.277,1.954 0.378,3.933 0.551,5.902 l 0.507,5.906 0.733,7.927 0.446,4.671 c 0.111,1.312 0.247,2.629 0.252,3.944 a 3.35,3.35 0 0 1 -3.525,3.415 C -6.326,94.334 -7.101,93.926 -7.851,93.427 L -25.802,81.519 c -2.141,-1.401 -3.043,-3.335 -3.105,-5.81 -0.034,-1.335 -0.103,-2.683 -0.325,-3.997 a 24.38,24.38 0 0 0 -3.917,-9.732 c -2.243,-3.292 -4.949,-6.028 -8.933,-7.127 -3.105,-0.858 -5.717,-0.026 -7.702,2.306 -1.537,1.806 -2.283,3.983 -2.555,6.326 -0.068,0.583 -0.16,1.162 -0.24,1.744 v 2.108 c 0.04,0.132 0.099,0.261 0.119,0.395 0.187,1.218 0.28,2.458 0.565,3.653 0.806,3.376 2.147,6.515 4.212,9.343 1.961,2.683 4.265,4.917 7.423,6.115 2.48,0.941 4.898,0.833 7.146,-0.662 a 7.29,7.29 0 0 0 2.441,-2.668 c 0.511,-0.964 1.312,-1.458 2.383,-1.263 0.584,0.105 1.176,0.381 1.676,0.712 l 11.154,7.481 7.499,5.138 c 1.282,0.909 1.94,2.261 1.982,3.818 0.037,1.385 -0.605,2.348 -1.944,2.989 l -13.707,6.758 c -0.304,0.149 -0.665,0.227 -1.005,0.247 -1.091,0.064 -1.915,-0.506 -2.682,-1.196 -1.148,-1.03 -2.241,-2.134 -3.47,-3.057 -2.138,-1.605 -4.502,-2.647 -7.277,-2.474 -1.468,0.092 -2.661,0.677 -3.591,1.786 -1.064,1.269 -1.332,2.822 -1.351,4.4 -0.028,2.421 0.691,4.699 1.799,6.811 1.956,3.728 4.689,6.775 8.399,8.849 1.823,1.018 3.784,1.606 5.904,1.33 2.267,-0.296 3.659,-1.705 4.27,-3.708 0.585,-1.914 0.417,-3.881 -0.137,-5.793 -0.267,-0.926 -0.663,-1.815 -0.961,-2.733 -0.423,-1.297 -0.142,-2.615 1.286,-3.075 0.174,-0.056 0.329,-0.172 0.497,-0.25 l 13.454,-6.264 a 3.57,3.57 0 0 1 1.611,-0.317 c 2.192,0.121 4.383,2.158 4.615,4.329 0.309,2.887 0.531,5.783 0.793,8.675 l 0.435,4.666 0.523,6.399 c 0.102,1.235 -1.081,2.133 -2.339,2.022 -1.392,-0.123 -2.758,-0.071 -4.09,0.396 -3.225,1.13 -4.48,3.598 -4.302,6.527 0.194,3.192 1.805,5.841 3.728,8.271 1.884,2.382 4.206,4.313 6.812,5.867 2.004,1.197 4.098,2.22 6.425,2.657 l 2.825,0.508 h 1.116 c 0.153,-0.044 0.304,-0.098 0.459,-0.13 0.805,-0.167 1.635,-0.253 2.409,-0.51 1.594,-0.529 2.812,-1.532 3.472,-3.123 0.874,-2.104 0.618,-4.221 -0.077,-6.28 -0.838,-2.48 -2.338,-4.588 -4.107,-6.489 -2.227,-2.392 -4.849,-4.261 -7.749,-5.774 -1.737,-0.907 -2.765,-2.36 -2.843,-4.393 -0.03,-0.76 -0.089,-1.522 -0.152,-2.282 l -0.71,-8.554 -0.354,-4.18 c -0.107,-1.355 -0.239,-2.709 -0.282,-4.066 -0.046,-1.422 0.858,-2.541 2.23,-2.872 1.436,-0.345 2.741,0.025 3.939,0.811 l 4.364,2.943 19.154,12.884 c 0.95,0.644 1.573,1.6 1.881,2.75 0.274,1.028 -0.134,1.896 -0.486,2.801 -1.063,2.729 -0.867,5.467 0.102,8.156 0.732,2.027 1.77,3.92 3.264,5.493 1.399,1.475 2.794,2.985 4.376,4.248 3.086,2.461 6.599,4.189 10.313,5.533 a 41.34,41.34 0 0 0 10.892,2.355 c 2.894,0.225 5.805,0.115 8.684,-0.456 4.074,-0.809 7.786,-2.319 10.672,-5.42 2.317,-2.488 3.212,-5.493 2.793,-8.842 -0.362,-2.904 -1.714,-5.407 -3.518,-7.662 -3.392,-4.238 -7.754,-7.221 -12.672,-9.365 -6.164,-2.688 -12.62,-3.892 -19.361,-3.274 -3.143,0.289 -6.165,1.012 -9.006,2.447 -2.195,1.109 -4.433,0.949 -6.478,-0.301 -2.846,-1.739 -5.6,-3.632 -8.379,-5.483 L 9.051,104.675 C 7.693,103.774 6.785,102.616 6.457,101.002 6.15,99.491 6.951,97.705 8.283,97.074 l 7.499,-3.532 18.53,-8.688 c 2.61,-1.196 5.219,-1.027 7.604,0.721 0.497,0.364 0.939,0.805 1.397,1.221 2.635,2.392 5.687,4.071 9.006,5.299 3.186,1.177 6.476,1.915 9.859,2.124 2.072,0.128 4.167,0.154 6.235,0.002 2.437,-0.179 4.886,-0.454 7.276,-0.947 5.346,-1.101 10.374,-3.08 15.105,-5.827 3.373,-1.959 6.487,-4.261 9.319,-6.924 3.184,-2.993 5.958,-6.334 8.066,-10.193 1.471,-2.693 2.571,-5.524 3.206,-8.529 0.193,-0.916 0.316,-1.848 0.47,-2.773 v -4.464 c -0.043,-0.11 -0.106,-0.217 -0.129,-0.332 -0.215,-1.067 -0.372,-2.149 -0.644,-3.202 -1.224,-4.73 -3.848,-8.584 -7.546,-11.712 -2.988,-2.527 -6.455,-4.183 -10.2,-5.262 -2.48,-0.715 -5.002,-1.236 -7.589,-1.317 -2.226,-0.069 -4.474,-0.26 -6.679,-0.049 -2.839,0.272 -5.674,0.767 -8.462,1.389 -4.362,0.974 -8.497,2.65 -12.431,4.749 -2.159,1.151 -4.234,2.502 -6.209,3.949 -3.233,2.369 -6.174,5.066 -8.663,8.245 -1.753,2.24 -3.26,4.62 -4.468,7.179 -1.531,3.243 -2.546,6.636 -2.781,10.252 -0.148,2.279 -0.082,4.527 0.423,6.754 0.616,2.717 -0.479,5.464 -2.911,6.772 -2.686,1.443 -5.446,2.75 -8.181,4.103 L 7.897,94.692 C 7.208,95.028 6.43,95.304 5.674,95.361 3.146,95.557 0.536,93.339 0.268,90.806 0.053,88.78 -0.079,86.746 -0.24,84.716 l -0.412,-5.424 -0.727,-8.426 -0.462,-5.474 c -0.094,-1.391 -0.245,-2.796 -0.134,-4.176 0.142,-1.772 0.917,-3.303 2.512,-4.256 0.953,-0.57 1.989,-1.001 2.94,-1.576 4.262,-2.581 7.398,-6.247 9.738,-10.572 3.388,-6.26 4.888,-12.979 4.536,-20.11 -0.15,-3.038 -0.604,-6.013 -1.464,-8.929 C 15.32,12.498 13.875,9.473 11.742,6.785 9.259,3.656 6.208,1.388 2.275,0.435 1.526,0.253 0.759,0.144 0,0"
           clip-path="url(#D)"
           class="B"
           id="path13"
           style="fill:#1a5586;fill-opacity:1" />
      </g>
      <g
         class="B"
         id="g24"
         style="fill:#1a5586;fill-opacity:1"
         transform="matrix(0.11300098,0,0,0.11300098,7.8424892,107.6224)">
        <path
           d="M 0,0 H 88.452 V -26.671 H -0.212 C 0,-54.194 10.791,-64.223 35.973,-64.223 h 52.479 v -26.671 h -53.96 c -18.41,0 -32.588,1.495 -47.4,13.443 -15.66,12.589 -23.278,32.644 -23.278,60.382 0,54.194 22.643,79.371 71.524,79.371 H 88.452 V 35.632 H 35.973 C 12.908,35.632 1.27,24.11 0,0"
           transform="matrix(1.333333,0,0,-1.333333,473.02347,315.4284)"
           clip-path="url(#N)"
           id="path18"
           style="fill:#1a5586;fill-opacity:1" />
        <path
           d="m 0,0 c -16.717,0 -24.547,-5.975 -24.547,-20.056 0,-11.094 6.772,-16.642 20.104,-16.642 h 42.322 c 33.857,0 48.457,-11.308 48.457,-43.314 0,-32.217 -17.14,-45.873 -53.113,-45.873 h -85.067 v 27.311 h 79.989 c 16.927,0 24.757,4.054 24.757,17.283 0,13.654 -7.195,17.709 -22.642,17.709 H -7.406 c -34.703,0 -50.574,13.228 -50.574,43.953 0,33.285 17.14,46.94 53.325,46.94 H 78.93 V 0 Z"
           transform="matrix(1.333333,0,0,-1.333333,694.5,268.77347)"
           clip-path="url(#P)"
           id="path19"
           style="fill:#1a5586;fill-opacity:1" />
        <path
           d="m 0,0 h 17.986 c 22.854,0 32.799,8.321 32.799,32.858 0,23.47 -8.676,31.151 -30.471,31.151 H 0 Z m 27.297,88.333 c 34.492,0 54.384,-21.764 54.384,-57.608 C 81.681,15.789 77.66,3.414 69.619,-6.827 59.039,-20.27 45.496,-24.11 25.393,-24.11 H 0 V -64.862 H -29.414 V 88.333 Z"
           transform="matrix(1.333333,0,0,-1.333333,877.32293,404.47267)"
           clip-path="url(#R)"
           id="path20"
           style="fill:#1a5586;fill-opacity:1" />
        <path
           d="m 0,0 v 23.256 h -34.704 c -12.485,0 -18.198,-2.56 -18.198,-12.588 C -52.902,1.28 -47.612,0 -36.82,0 Z m -15.66,89.826 c 30.473,0 45.92,-14.295 45.92,-42.033 v -70.41 h -79.142 c -22.22,0 -34.493,11.735 -34.493,32.431 0,26.031 13.332,35.846 44.438,35.846 h 38.725 v 2.774 c 0,14.295 -8.041,18.135 -26.663,18.135 h -49.093 v 23.257 z"
           transform="matrix(1.333333,0,0,-1.333333,1114.8828,406.4636)"
           clip-path="url(#T)"
           id="path21"
           style="fill:#1a5586;fill-opacity:1" />
        <path
           d="m 0,0 c 33.011,0 46.554,-11.309 46.554,-41.18 v -71.263 H 17.141 v 67.636 c 0,15.577 -2.752,20.057 -19.469,20.057 h -23.699 v -87.693 H -55.441 V 0 Z"
           transform="matrix(1.333333,0,0,-1.333333,1263.8489,286.69533)"
           clip-path="url(#V)"
           id="path22"
           style="fill:#1a5586;fill-opacity:1" />
        <path
           d="m 1019.617,238.979 h 30.895 V 126.536 h -30.895 z m 0,40.751 h 30.895 v -27.95 h -30.895 z"
           transform="matrix(1.333333,0,0,-1.333333,0,605.33333)"
           clip-path="url(#X)"
           id="path23"
           style="fill:#1a5586;fill-opacity:1" />
        <path
           d="M 0,0 H 34.068 L 57.98,-33.925 82.527,0 h 33.858 L 75.121,-56.969 115.75,-112.443 H 81.469 L 57.98,-79.799 34.281,-112.443 H 0 l 41.264,56.115 z"
           transform="matrix(1.333333,0,0,-1.333333,1418.4531,286.69533)"
           clip-path="url(#Z)"
           id="path24"
           style="fill:#1a5586;fill-opacity:1" />
      </g>
    </g>
  </g>
</svg>
