<?xml version="1.0" encoding="UTF-8"?>
<!-- Created with Inkscape (http://www.inkscape.org/) -->
<svg width="11.837mm" height="10mm" version="1.1" viewBox="0 0 11.837 10" xmlns="http://www.w3.org/2000/svg">
 <g transform="translate(-96.624 -66.982)">
  <g transform="matrix(.049611 0 0 .049611 96.624 66.982)">
   <path transform="matrix(.13333 0 0 -.13333 0 201.57)" d="m339.52 401.22h1110.5v1110.5h-1110.5v-1110.5" fill="#231f20"/>
   <path transform="matrix(.13333 0 0 -.13333 0 201.57)" d="m1267 956.5c0-205.6-166.64-372.27-372.27-372.27-205.59 0-372.24 166.67-372.24 372.27 0 205.59 166.65 372.29 372.24 372.29 205.63 0 372.27-166.7 372.27-372.29" fill="#fff"/>
   <g fill="#231f20">
    <path transform="matrix(.13333 0 0 -.13333 0 201.57)" d="m973.66 1022.1 55.634 171.69c-104.06 59.03-238.63 44.28-327.32-44.44-106.49-106.48-106.49-279.17 0-385.66 106.51-106.52 279.19-106.52 385.71 0 84.47 84.488 101.86 210.6 52.28 312.32l-166.3-53.91"/>
    <path transform="matrix(.13333 0 0 -.13333 0 201.57)" d="m0 229.25v-221.89h57.68v87.109h63.269v48.84h-63.269v37.089h69.742v48.852h-127.42"/>
    <path transform="matrix(.13333 0 0 -.13333 0 201.57)" d="m183.08 229.25v-221.89h126.84v48.859h-69.16v173.03h-57.68"/>
    <path transform="matrix(.13333 0 0 -.13333 0 201.57)" d="m352.04 229.25v-221.89h126.24v48.859h-68.57v38.25h65.043v48.84h-65.043v37.089h68.57v48.852h-126.24"/>
    <path transform="matrix(.13333 0 0 -.13333 0 201.57)" d="m664.9 229.25-33.852-57.379-33.84 57.379h-70.93l70.93-103.29-86.808-118.6h69.738l50.91 72.402 46.488-72.402h69.461l-82.097 118.6 70.918 103.29h-70.918"/>
    <path transform="matrix(.13333 0 0 -.13333 0 201.57)" d="m818.55 122.12c0-38.25 28.262-66.211 62.691-66.211 34.418 0 62.68 27.961 62.68 66.211 0 30.609-28.262 58.57-62.68 58.57-34.429 0-62.691-27.961-62.691-58.57m185.4 0.301c0-71.813-51.505-122.43-122.71-122.43-71.222 0-122.72 50.621-122.72 122.43 0 67.09 58.863 114.18 122.72 114.18 63.848 0 122.71-47.09 122.71-114.18"/>
    <path transform="matrix(.13333 0 0 -.13333 0 201.57)" d="m1111.7 127.42h9.71c20.89 0 41.5 0 41.5 27.078 0 27.961-19.13 28.25-41.5 28.25h-9.71zm-57.68 101.83h88.28c47.68 0 80.64-22.078 80.64-72.98 0-52.391-28.25-75.34-78.57-75.34h-32.67v-73.57h-57.68v221.89"/>
    <path transform="matrix(.13333 0 0 -.13333 0 201.57)" d="m1251.8 229.25v-48.859h47.67v-173.03h57.68v173.03h47.67v48.859h-153.02"/>
    <path transform="matrix(.13333 0 0 -.13333 0 201.57)" d="m1455.2 7.3594h57.67v221.89h-57.67v-221.89"/>
    <path transform="matrix(.13333 0 0 -.13333 0 201.57)" d="m1707.4 229.25-33.84-57.391-33.85 57.391h-70.92l70.92-103.29-86.81-118.6h69.75l50.91 72.391 46.5-72.391h69.45l-82.11 118.6 70.93 103.29h-70.93"/>
   </g>
  </g>
 </g>
</svg>
