<?xml version="1.0" encoding="UTF-8" standalone="no"?>
<!-- Created with Inkscape (http://www.inkscape.org/) -->

<svg
   width="19.999996mm"
   height="3.7494035mm"
   viewBox="0 0 19.999996 3.7494035"
   version="1.1"
   id="svg1"
   inkscape:version="1.3.2 (091e20ef0f, 2023-11-25)"
   sodipodi:docname="Genie Networks.svg"
   xmlns:inkscape="http://www.inkscape.org/namespaces/inkscape"
   xmlns:sodipodi="http://sodipodi.sourceforge.net/DTD/sodipodi-0.dtd"
   xmlns="http://www.w3.org/2000/svg"
   xmlns:svg="http://www.w3.org/2000/svg">
  <sodipodi:namedview
     id="namedview1"
     pagecolor="#ffffff"
     bordercolor="#000000"
     borderopacity="0.25"
     inkscape:showpageshadow="2"
     inkscape:pageopacity="0.0"
     inkscape:pagecheckerboard="0"
     inkscape:deskcolor="#d1d1d1"
     inkscape:document-units="mm"
     inkscape:zoom="0.97637486"
     inkscape:cx="381.51331"
     inkscape:cy="179.23444"
     inkscape:window-width="3440"
     inkscape:window-height="1336"
     inkscape:window-x="0"
     inkscape:window-y="0"
     inkscape:window-maximized="1"
     inkscape:current-layer="layer1" />
  <defs
     id="defs1" />
  <g
     inkscape:label="Capa 1"
     inkscape:groupmode="layer"
     id="layer1"
     transform="translate(-3.9687383,-101.07072)">
    <path
       id="path1"
       d="m 13.885815,102.16335 c 0,-0.0479 0.03763,-0.0697 0.09009,-0.0697 0.05283,0 0.08836,0.0219 0.08836,0.0697 v 1.1632 c 0,0.0661 -0.03762,0.1062 -0.11287,0.1062 -0.08079,0 -0.110735,-0.0284 -0.158111,-0.096 l -0.49875,-0.72654 c -0.07526,-0.10829 -0.168797,-0.27449 -0.212425,-0.35899 0.0116,0.1083 0.02643,0.34374 0.02643,0.59236 v 0.52011 c 0,0.0458 -0.03762,0.0691 -0.0885,0.0691 -0.05232,0 -0.08994,-0.0233 -0.08994,-0.0691 v -1.16829 c 0,-0.0626 0.04463,-0.10178 0.118454,-0.10178 0.08435,0 0.116331,0.0306 0.152527,0.0813 l 0.473735,0.69257 c 0.08643,0.127 0.19173,0.30804 0.241097,0.40307 -0.01125,-0.10515 -0.03011,-0.35076 -0.03011,-0.59429 z"
       style="fill:#595757;fill-opacity:1;fill-rule:nonzero;stroke:none;stroke-width:0.0130154" />
    <path
       id="path2"
       d="m 14.532577,103.22125 c 0,0.0392 0.02846,0.0544 0.06959,0.0544 h 0.673704 c 0.04881,0 0.07524,0.0306 0.07524,0.0727 0,0.0406 -0.02643,0.0742 -0.07524,0.0742 h -0.728095 c -0.133668,0 -0.192081,-0.0523 -0.192081,-0.18089 v -0.95481 c 0,-0.13072 0.05841,-0.18302 0.192081,-0.18302 h 0.711318 c 0.04881,0 0.07519,0.0304 0.07519,0.0726 0,0.0421 -0.02638,0.0747 -0.07519,0.0747 h -0.66251 c -0.04515,0 -0.06401,0.0183 -0.06401,0.059 v 0.35091 h 0.641659 c 0.04723,0 0.07368,0.0304 0.07368,0.0726 0,0.0392 -0.02853,0.0712 -0.07368,0.0712 h -0.641659 z"
       style="fill:#595757;fill-opacity:1;fill-rule:nonzero;stroke:none;stroke-width:0.0130154" />
    <path
       id="path3"
       d="m 15.606855,102.25277 c -0.04723,0 -0.07326,-0.0336 -0.07326,-0.0727 0,-0.0406 0.02603,-0.0761 0.07118,-0.0761 h 1.036703 c 0.04524,0 0.07169,0.0355 0.07169,0.0761 0,0.0392 -0.02797,0.0727 -0.07169,0.0727 h -0.427074 v 1.1109 c 0,0.0458 -0.03914,0.0691 -0.08994,0.0691 -0.05089,0 -0.0906,-0.0233 -0.0906,-0.0691 v -1.1109 z"
       style="fill:#595757;fill-opacity:1;fill-rule:nonzero;stroke:none;stroke-width:0.0130154" />
    <path
       id="path4"
       d="m 17.508797,103.35193 c -0.01874,0.0605 -0.06404,0.0808 -0.124037,0.0808 -0.05844,0 -0.107247,-0.0218 -0.126119,-0.0828 L 16.9028,102.18511 c -0.0016,-0.009 -0.0035,-0.0167 -0.0035,-0.0238 0,-0.0386 0.03554,-0.0589 0.07876,-0.0661 0.0096,-10e-4 0.0173,-10e-4 0.02641,-10e-4 0.03566,0 0.06963,0.0138 0.08082,0.0544 l 0.235449,0.79928 c 0.02642,0.0894 0.05089,0.24561 0.06755,0.33147 0.01679,-0.0879 0.04334,-0.24047 0.06976,-0.3299 l 0.223604,-0.78041 c 0.01536,-0.053 0.05857,-0.0748 0.122606,-0.0748 0.06,0 0.103212,0.0219 0.11844,0.0763 l 0.224255,0.78041 c 0.02434,0.085 0.04881,0.24262 0.0656,0.33048 0.01874,-0.0915 0.04725,-0.24547 0.07158,-0.3284 l 0.23701,-0.80435 c 0.01314,-0.0406 0.04516,-0.0544 0.08486,-0.0544 0.0072,0 0.01679,0 0.02434,0.001 0.04321,0.007 0.07887,0.0275 0.07887,0.0646 0,0.007 -0.0021,0.0138 -0.0035,0.0203 l -0.369117,1.1719 c -0.01887,0.059 -0.0656,0.0808 -0.12612,0.0808 -0.05649,0 -0.106726,-0.0203 -0.124036,-0.0828 l -0.214624,-0.76012 c -0.02994,-0.1053 -0.05076,-0.25223 -0.06755,-0.34568 -0.01887,0.0935 -0.04126,0.23737 -0.07171,0.34216 z"
       style="fill:#595757;fill-opacity:1;fill-rule:nonzero;stroke:none;stroke-width:0.0130154" />
    <path
       id="path5"
       d="m 19.024962,102.76429 c 0,0.32681 0.184558,0.53831 0.472329,0.53831 0.293237,0 0.468684,-0.20839 0.468684,-0.54847 0,-0.32031 -0.182476,-0.52987 -0.468684,-0.52987 -0.291936,0 -0.472329,0.21307 -0.472329,0.54003 m 1.127134,0 c 0,0.41634 -0.252239,0.68576 -0.654805,0.68576 -0.402697,0 -0.65845,-0.26732 -0.65845,-0.68733 0,-0.41492 0.254191,-0.68433 0.65845,-0.68433 0.402566,0 0.654805,0.26743 0.654805,0.6859"
       style="fill:#595757;fill-opacity:1;fill-rule:nonzero;stroke:none;stroke-width:0.0130154" />
    <path
       id="path6"
       d="m 20.987425,102.69154 c 0.159568,0 0.264863,-0.0899 0.264863,-0.22518 0,-0.14393 -0.08642,-0.22217 -0.25367,-0.22217 h -0.382393 c -0.03918,0 -0.06195,0.0188 -0.06195,0.0595 v 0.38787 z m 0.507861,0.64162 c 0.0037,0.0101 0.0056,0.0188 0.0056,0.0289 0,0.0321 -0.02434,0.0575 -0.06195,0.0656 -0.01327,0.004 -0.0285,0.005 -0.04178,0.005 -0.0315,0 -0.06,-0.0132 -0.07315,-0.0437 l -0.04686,-0.10829 c -0.135751,-0.33047 -0.188593,-0.45036 -0.376666,-0.45036 h -0.34621 v 0.53171 c 0,0.0474 -0.03566,0.0707 -0.08642,0.0707 -0.05297,0 -0.09059,-0.0233 -0.09059,-0.0726 v -1.07322 c 0,-0.13071 0.05857,-0.18302 0.192237,-0.18302 h 0.440311 c 0.272933,0 0.423522,0.13016 0.423522,0.33856 0,0.19473 -0.122605,0.29635 -0.297533,0.33046 0.112974,0.0301 0.173366,0.14394 0.31224,0.46007 z"
       style="fill:#595757;fill-opacity:1;fill-rule:nonzero;stroke:none;stroke-width:0.0130154" />
    <path
       id="path7"
       d="m 22.759212,103.30627 c 0.01171,0.0131 0.01731,0.0289 0.01731,0.0437 0,0.0254 -0.01731,0.0507 -0.04165,0.0675 -0.01679,0.0123 -0.03566,0.0173 -0.05649,0.0173 -0.02447,0 -0.05089,-0.0102 -0.0656,-0.029 l -0.532851,-0.63643 -0.204862,0.18806 v 0.40622 c 0,0.0458 -0.03761,0.0696 -0.08851,0.0696 -0.05284,0 -0.09046,-0.0238 -0.09046,-0.0696 v -1.20082 c 0,-0.0474 0.03761,-0.0693 0.09046,-0.0693 0.05089,0 0.08851,0.0219 0.08851,0.0693 v 0.59129 l 0.681226,-0.6401 c 0.01484,-0.0153 0.03775,-0.0219 0.05805,-0.0219 0.02291,0 0.04516,0.006 0.06247,0.0203 0.02044,0.0153 0.0315,0.0406 0.0315,0.0641 0,0.0173 -0.0055,0.0341 -0.01874,0.0458 l -0.485085,0.4402 z"
       style="fill:#595757;fill-opacity:1;fill-rule:nonzero;stroke:none;stroke-width:0.0130154" />
    <path
       id="path8"
       d="m 23.515797,102.67629 c 0.293367,0.056 0.452937,0.1454 0.452937,0.39096 0,0.21868 -0.186121,0.3828 -0.522699,0.3828 -0.428988,0 -0.517493,-0.19976 -0.562786,-0.33709 -0.002,-0.009 -0.0035,-0.0153 -0.0035,-0.0219 0,-0.0376 0.03202,-0.0625 0.07119,-0.0711 0.01171,-0.002 0.02083,-0.004 0.03202,-0.004 0.03605,0 0.07172,0.0152 0.08291,0.0509 0.03397,0.11338 0.09605,0.24054 0.370549,0.24054 0.214624,0 0.348292,-0.0931 0.348292,-0.23855 0,-0.13924 -0.08486,-0.20032 -0.306513,-0.24094 l -0.150588,-0.0285 c -0.282694,-0.0524 -0.410245,-0.14892 -0.410245,-0.37059 0,-0.17805 0.146423,-0.35085 0.500312,-0.35085 0.338531,0 0.455539,0.16269 0.496668,0.28425 0.004,0.009 0.0056,0.0173 0.0056,0.0259 0,0.0355 -0.03202,0.0605 -0.06963,0.0677 -0.0091,10e-4 -0.0203,0.003 -0.03202,0.003 -0.03358,0 -0.06768,-0.0133 -0.08239,-0.0488 -0.03046,-0.0965 -0.109329,-0.19173 -0.318227,-0.19173 -0.218138,0 -0.317836,0.0987 -0.317836,0.21059 0,0.12146 0.0656,0.18445 0.276577,0.22166 z"
       style="fill:#595757;fill-opacity:1;fill-rule:nonzero;stroke:none;stroke-width:0.0130154" />
    <path
       id="path9"
       d="m 10.349803,101.92841 c 0.0016,-0.11333 -0.08944,-0.20535 -0.20226,-0.20642 -0.11296,-0.001 -0.2049924,0.0894 -0.2059033,0.20241 -0.00107,0.11287 0.089429,0.20539 0.2017393,0.20641 0.112973,0.001 0.2055,-0.0895 0.206424,-0.2024"
       style="fill:#2fa6d9;fill-opacity:1;fill-rule:nonzero;stroke:none;stroke-width:0.0130154" />
    <path
       id="path10"
       d="M 7.5189519,102.53703 H 6.7792994 c 0.0061,-0.0423 0.018207,-0.0824 0.036053,-0.11896 0.021358,-0.0442 0.0483,-0.0829 0.079771,-0.11491 0.031629,-0.0325 0.067667,-0.0581 0.1087958,-0.0763 0.089533,-0.0397 0.1938123,-0.0331 0.2802348,7.4e-4 0.046725,0.0182 0.088374,0.0437 0.1229955,0.0762 0.034621,0.032 0.062474,0.0707 0.082414,0.11389 0.017285,0.0371 0.026888,0.0768 0.02939,0.11948 m 0.3533942,0.42443 -0.00666,0.0199 c -0.014186,0.0416 -0.038538,0.0828 -0.072092,0.12196 -0.034112,0.0397 -0.076257,0.0757 -0.1256246,0.10722 -0.049823,0.0316 -0.1058023,0.0575 -0.1662067,0.0768 -0.060496,0.0189 -0.1245573,0.0285 -0.1906497,0.0285 -0.078353,0 -0.1510048,-0.0163 -0.2160819,-0.0488 -0.065077,-0.032 -0.1220714,-0.0773 -0.1693042,-0.13417 -0.04778,-0.0565 -0.085004,-0.12512 -0.1108781,-0.20346 -0.024354,-0.0726 -0.037628,-0.15253 -0.039203,-0.23688 h 1.1739769 v -0.0208 c 0,-0.0819 -0.018351,-0.16127 -0.053884,-0.23601 -0.035651,-0.0742 -0.085368,-0.14082 -0.1490137,-0.19768 -0.062994,-0.057 -0.1392647,-0.10269 -0.2267022,-0.13574 -0.087503,-0.0336 -0.1851182,-0.0504 -0.289749,-0.0504 -0.1189737,0 -0.2287849,0.0208 -0.3253853,0.0616 -0.096704,0.0406 -0.1810443,0.0976 -0.2501429,0.16971 -0.069646,0.0722 -0.12405,0.15919 -0.1616775,0.25839 -0.037719,0.0986 -0.056487,0.20782 -0.056487,0.32431 0,0.0981 0.020849,0.19172 0.062487,0.27765 0.041233,0.0859 0.098631,0.16162 0.1703716,0.22512 0.071741,0.0631 0.1555214,0.11389 0.2507029,0.15049 0.094466,0.0362 0.1976651,0.0549 0.3064738,0.0549 0.083429,0 0.1667534,-0.0147 0.2476961,-0.0432 0.080331,-0.0284 0.1560286,-0.0676 0.2241122,-0.11583 0.068734,-0.0483 0.1291259,-0.10636 0.1795217,-0.17194 0.05089,-0.066 0.088453,-0.13717 0.1118934,-0.21201 l 0.006,-0.0193 z"
       style="fill:#2fa6d9;fill-opacity:1;fill-rule:nonzero;stroke:none;stroke-width:0.0130154" />
    <path
       id="path11"
       d="m 11.717995,102.53703 h -0.739288 c 0.0056,-0.0423 0.01785,-0.0824 0.03564,-0.11896 0.02136,-0.0442 0.0483,-0.0829 0.07982,-0.11491 0.03147,-0.0325 0.06818,-0.0581 0.108796,-0.0763 0.08994,-0.0397 0.194164,-0.0331 0.280091,7.4e-4 0.04687,0.0182 0.08852,0.0437 0.123139,0.0762 0.03497,0.032 0.06249,0.0707 0.08226,0.11389 0.01729,0.0371 0.02705,0.0768 0.02955,0.11948 m 0.353342,0.42443 -0.0066,0.0199 c -0.01419,0.0416 -0.03812,0.0828 -0.07173,0.12196 -0.03448,0.0397 -0.07678,0.0757 -0.125989,0.10722 -0.04982,0.0316 -0.105802,0.0575 -0.16635,0.0768 -0.06051,0.0189 -0.124571,0.0285 -0.190663,0.0285 -0.07825,0 -0.150992,-0.0163 -0.216069,-0.0488 -0.06508,-0.032 -0.121928,-0.0773 -0.169304,-0.13417 -0.04779,-0.0565 -0.08486,-0.12512 -0.110787,-0.20346 -0.02446,-0.0726 -0.03763,-0.15253 -0.03915,-0.23688 h 1.173976 v -0.0208 c 0,-0.0819 -0.01785,-0.16127 -0.05388,-0.23601 -0.03564,-0.0742 -0.08551,-0.14082 -0.149013,-0.19768 -0.06249,-0.057 -0.138757,-0.10269 -0.226195,-0.13574 -0.0875,-0.0336 -0.185118,-0.0504 -0.290413,-0.0504 -0.11896,0 -0.228277,0.0208 -0.325385,0.0616 -0.09655,0.0406 -0.180888,0.0976 -0.250143,0.16971 -0.06964,0.0722 -0.124049,0.15919 -0.161664,0.25839 -0.03758,0.0986 -0.05634,0.20782 -0.05634,0.32431 0,0.0981 0.0208,0.19172 0.06249,0.27765 0.04123,0.0859 0.09863,0.16162 0.170372,0.22512 0.07159,0.0631 0.156028,0.11389 0.25065,0.15049 0.09503,0.0362 0.197717,0.0549 0.306526,0.0549 0.08343,0 0.166702,-0.0147 0.24754,-0.0432 0.08084,-0.0284 0.156185,-0.0676 0.224269,-0.11583 0.06858,-0.0483 0.129139,-0.10636 0.179469,-0.17194 0.05089,-0.066 0.08852,-0.13717 0.112362,-0.21201 l 0.0061,-0.0193 z"
       style="fill:#2fa6d9;fill-opacity:1;fill-rule:nonzero;stroke:none;stroke-width:0.0130154" />
    <path
       id="path12"
       d="m 9.6218512,102.37892 c -0.022373,-0.0525 -0.053897,-0.0992 -0.093047,-0.13783 -0.039189,-0.0387 -0.085511,-0.0702 -0.1373124,-0.0931 -0.051814,-0.0228 -0.108809,-0.0345 -0.1687969,-0.0345 -0.1133773,0 -0.2257393,0.0238 -0.3339754,0.0702 -0.096197,0.0416 -0.1907147,0.10263 -0.2806513,0.1819 v -0.2237 H 8.2429728 v 1.4322 H 8.608068 v -1.05033 c 0.033463,-0.0265 0.069151,-0.0509 0.1046308,-0.0728 0.038695,-0.0233 0.078405,-0.0432 0.1170346,-0.0599 0.038643,-0.0163 0.077182,-0.0295 0.1144055,-0.0386 0.036547,-0.009 0.072093,-0.0132 0.1046309,-0.0132 0.072236,0 0.1287223,0.0203 0.1739249,0.063 0.043719,0.0412 0.066092,0.10529 0.066092,0.18974 v 0.98215 h 0.3670214 v -1.0269 c 0,-0.0595 -0.011179,-0.11597 -0.033957,-0.16828"
       style="fill:#2fa6d9;fill-opacity:1;fill-rule:nonzero;stroke:none;stroke-width:0.0130154" />
    <path
       id="path13"
       d="m 9.9639089,102.37018 v 1.20391 h 0.3635201 v -1.35125 z"
       style="fill:#2fa6d9;fill-opacity:1;fill-rule:nonzero;stroke:none;stroke-width:0.0130154" />
    <path
       id="path14"
       d="m 4.7958791,102.21308 c 0,-0.36912 0.195231,-0.66847 0.4367788,-0.66847 0.240936,0 0.4366747,0.29935 0.4366747,0.66847 0,0.36966 -0.1957387,0.66912 -0.4366747,0.66912 -0.2415478,0 -0.4367788,-0.29946 -0.4367788,-0.66912 z M 6.1026024,101.175 c 0.016673,-0.029 0.043224,-0.0432 0.081346,-0.0432 0.042196,0 0.070569,0.0152 0.086943,0.0462 0.015761,0.0285 0.023335,0.0738 0.023335,0.13473 0,0.0646 -0.00915,0.11195 -0.026944,0.14083 -0.01627,0.026 -0.043784,0.0386 -0.083338,0.0386 -0.044226,0 -0.072248,-0.0117 -0.086019,-0.0355 -0.015761,-0.0275 -0.023792,-0.0757 -0.023792,-0.14392 0,-0.059 0.00961,-0.10514 0.028465,-0.13768 m 0.122475,2.31024 c -0.2125156,-0.17603 -0.4982428,-0.27557 -0.7707464,-0.3016 -0.038643,-0.004 -0.4483755,-0.0259 -0.6019677,-0.0421 -0.1570999,-0.0163 -0.3258928,-0.0203 -0.4707907,-0.0961 -0.033556,-0.0173 -0.066602,-0.0402 -0.087448,-0.0742 -0.042148,-0.0698 -0.00559,-0.15111 0.045808,-0.20291 0.021862,-0.0224 0.045707,-0.0458 0.075754,-0.0554 0.036047,-0.0112 0.053893,0.008 0.083279,0.0189 0.1840456,0.14587 0.4443538,0.23738 0.7336927,0.23738 0.5572234,0 1.0086888,-0.33865 1.0086888,-0.75606 0,-0.25472 -0.1682762,-0.4799 -0.4259943,-0.61665 0.058973,-0.0513 0.104683,-0.0768 0.1509918,-0.0864 0.014187,-0.003 0.029389,-0.001 0.047741,0.004 l 0.026955,0.0122 c 0.044786,0.0173 0.093086,0.0265 0.1429092,0.0265 0.071585,0 0.1366619,-0.0198 0.1942159,-0.058 0.066496,-0.0447 0.1006219,-0.10321 0.1006219,-0.17438 0,-0.0472 -0.013171,-0.0895 -0.03971,-0.12559 -0.025368,-0.0345 -0.060404,-0.063 -0.1036155,-0.0838 l -0.019926,-0.01 c -0.019783,-0.009 -0.041142,-0.0163 -0.06401,-0.0214 -0.1006221,-0.0238 -0.1866409,0.001 -0.2628071,0.0595 -0.065585,0.0509 -0.09919,0.11388 -0.09919,0.18713 0,0.0158 0.00198,0.03 0.00458,0.0443 -5.091e-4,0 -5.091e-4,0 -5.091e-4,0 0.00208,0.0238 -0.011193,0.031 -0.1387573,0.14384 l -0.039189,0.0351 c -0.1439374,-0.059 -0.3080487,-0.092 -0.4829966,-0.092 -0.5571713,0 -1.0092029,0.33799 -1.0092029,0.75541 0,0.12054 0.038131,0.23442 0.1047845,0.33515 0.00142,0.009 0.003,0.0183 0.00244,0.0273 -0.00193,0.0245 -0.016269,0.0397 -0.030454,0.0575 -0.030556,0.0381 -0.067671,0.0707 -0.097615,0.10879 -0.026387,0.0336 -0.049826,0.0732 -0.068179,0.11237 -0.043622,0.093 -0.064061,0.19976 -0.045707,0.30246 0.00208,0.0123 0.00458,0.0245 0.00758,0.0367 0.029031,0.10722 0.101225,0.19421 0.1887237,0.25562 0.019269,0.0138 0.039046,0.027 0.059993,0.0386 0.1438293,0.0778 0.3136908,0.11145 0.4723161,0.12665 0.176878,0.0168 0.4499465,0.0117 0.4737972,0.0117 0.2298521,-0.003 0.4768324,0.0483 0.6720635,0.17337 0.1500937,0.0961 0.2792198,0.25822 0.227262,0.44593 -0.096548,0.34974 -0.5958062,0.44837 -0.9009134,0.44837 -0.5043405,0 -0.9130555,-0.23895 -0.9130555,-0.53388 0,-0.19417 0.1774365,-0.36301 0.4422701,-0.45697 -0.077686,-0.023 -0.1641165,-0.0362 -0.2562409,-0.0362 -0.3278762,0 -0.5937771,0.16376 -0.5937771,0.3656 0,0.21658 0.1698615,0.42859 0.4088165,0.57151 0.033454,0.0183 0.067568,0.036 0.1026994,0.0513 0.23987,0.10671 0.5099397,0.16371 0.7783317,0.16528 0.5333245,-0.007 0.9852585,-0.22934 1.1601467,-0.53947 0.1616772,-0.28675 0.044291,-0.59897 -0.1936562,-0.79562"
       style="fill:#2fa6d9;fill-opacity:1;fill-rule:nonzero;stroke:none;stroke-width:0.0130154" />
  </g>
</svg>
