<?xml version="1.0" encoding="UTF-8" standalone="no"?>
<!-- Created with Inkscape (http://www.inkscape.org/) -->

<svg
   width="20mm"
   height="10mm"
   viewBox="0 0 20 10"
   version="1.1"
   id="svg1"
   inkscape:version="1.3 (0e150ed6c4, 2023-07-21)"
   sodipodi:docname="IP-Broker_2x1.svg"
   xmlns:inkscape="http://www.inkscape.org/namespaces/inkscape"
   xmlns:sodipodi="http://sodipodi.sourceforge.net/DTD/sodipodi-0.dtd"
   xmlns="http://www.w3.org/2000/svg"
   xmlns:svg="http://www.w3.org/2000/svg">
  <sodipodi:namedview
     id="namedview1"
     pagecolor="#ffffff"
     bordercolor="#000000"
     borderopacity="0.25"
     inkscape:showpageshadow="2"
     inkscape:pageopacity="0.0"
     inkscape:pagecheckerboard="0"
     inkscape:deskcolor="#d1d1d1"
     inkscape:document-units="mm"
     inkscape:zoom="4.1335578"
     inkscape:cx="32.296633"
     inkscape:cy="23.224545"
     inkscape:window-width="1866"
     inkscape:window-height="1270"
     inkscape:window-x="989"
     inkscape:window-y="55"
     inkscape:window-maximized="0"
     inkscape:current-layer="layer1" />
  <defs
     id="defs1">
    <clipPath
       id="D">
      <path
         d="M 0,454 H 2551.18 V 0 H 0 Z"
         transform="translate(-170.866,-125.406)"
         id="path1" />
    </clipPath>
    <clipPath
       id="N">
      <path
         d="M 0,454 H 2551.18 V 0 H 0 Z"
         transform="translate(-354.768,-217.429)"
         id="path6" />
    </clipPath>
    <clipPath
       id="P">
      <path
         d="M 0,454 H 2551.18 V 0 H 0 Z"
         transform="translate(-520.875,-252.42)"
         id="path7" />
    </clipPath>
    <clipPath
       id="R">
      <path
         d="M 0,454 H 2551.18 V 0 H 0 Z"
         transform="translate(-657.992,-150.645)"
         id="path8" />
    </clipPath>
    <clipPath
       id="T">
      <path
         d="M 0,454 H 2551.18 V 0 H 0 Z"
         transform="translate(-836.162,-149.152)"
         id="path9" />
    </clipPath>
    <clipPath
       id="V">
      <path
         d="M 0,454 H 2551.18 V 0 H 0 Z"
         transform="translate(-947.887,-238.979)"
         id="path10" />
    </clipPath>
    <clipPath
       id="X">
      <path
         d="M 0,454 H 2551.18 V 0 H 0 Z"
         id="path11" />
    </clipPath>
    <clipPath
       id="Z">
      <path
         d="M 0,454 H 2551.18 V 0 H 0 Z"
         transform="translate(-1063.84,-238.979)"
         id="path12" />
    </clipPath>
  </defs>
  <g
     inkscape:label="Capa 1"
     inkscape:groupmode="layer"
     id="layer1">
    <path
       id="path2"
       d="m 0.1772453,3.9343554 c 0.0974625,0 0.17544,0.074451 0.17544,0.1772278 0,0.097501 -0.0779775,0.1772778 -0.17544,0.1772778 -0.09749,0 -0.177245,-0.079776 -0.177245,-0.1772778 0,-0.1027767 0.079755,-0.1772278 0.177245,-0.1772278 z m 0,-0.5051831 c 0.0974625,0 0.17544,0.076226 0.17544,0.1737027 0,0.099277 -0.0779775,0.1790279 -0.17544,0.1790279 -0.09749,0 -0.177245,-0.079751 -0.177245,-0.1790279 0,-0.097476 0.079755,-0.1737027 0.177245,-0.1737027"
       style="fill:#1774c4;fill-opacity:1;fill-rule:nonzero;stroke:none;stroke-width:0.00250002" />
    <path
       id="path3"
       d="m 0.6681753,3.9343554 c 0.097475,0 0.175475,0.074451 0.175475,0.1772278 0,0.097501 -0.078,0.1772778 -0.175475,0.1772778 -0.0975,0 -0.17725,-0.079776 -0.17725,-0.1772778 0,-0.1027767 0.07975,-0.1772278 0.17725,-0.1772278 z m 0,-0.5051831 c 0.097475,0 0.175475,0.076226 0.175475,0.1737027 0,0.099277 -0.078,0.1790279 -0.175475,0.1790279 -0.0975,0 -0.17725,-0.079751 -0.17725,-0.1790279 0,-0.097476 0.07975,-0.1737027 0.17725,-0.1737027"
       style="fill:#1774c4;fill-opacity:1;fill-rule:nonzero;stroke:none;stroke-width:0.00250002" />
    <path
       id="path4"
       d="M 0.8153753,6.5682475 H 0.0224428 V 4.4662639 h 0.7929325 v 2.1019836"
       style="fill:#1774c4;fill-opacity:1;fill-rule:nonzero;stroke:none;stroke-width:0.00250002" />
    <path
       id="path5"
       d="m 2.3879503,4.9468215 c 0.4784,0.00445 0.4784,-0.7796374 0,-0.7752124 h -0.46075 v 0.7752124 z m -1.2537,-1.5150242 h 1.2537 c 0.766325,0 1.147325,0.5537589 1.147325,1.1074677 0,0.558159 -0.3854,1.1119428 -1.1429,1.1119428 h -0.465175 v 0.9170397 h -0.79295 V 3.4317973"
       style="fill:#1774c4;fill-opacity:1;fill-rule:nonzero;stroke:none;stroke-width:0.00250002" />
    <path
       id="path6-0"
       d="m 3.3109503,5.6954835 c 0.24365,0 0.443,0.1949281 0.443,0.438582 0,0.248054 -0.19935,0.4474322 -0.443,0.4474322 -0.243625,0 -0.43855,-0.1993782 -0.43855,-0.4474322 0,-0.2436539 0.194925,-0.438582 0.43855,-0.438582"
       style="fill:#1d3e67;fill-opacity:1;fill-rule:nonzero;stroke:none;stroke-width:0.00250002" />
    <path
       id="path7-2"
       d="m 5.3238503,5.8727114 c 0.478475,0 0.469575,-0.6423603 0,-0.6423603 h -0.460675 v 0.6423603 z m 0,-1.2138445 c 0.38545,0 0.398725,-0.5581589 0,-0.5581589 h -0.460675 v 0.5581589 z m 0.6955,0.2392539 c 0.4297,0.2170284 0.482875,0.6201599 0.442975,0.8593887 -0.0797,0.5050331 -0.420825,0.810713 -1.1163,0.810713 H 4.0658003 V 3.4317973 h 1.25805 c 0.59805,0 1.036625,0.3588558 1.0189,0.9568653 -0.00445,0.1417523 -0.09745,0.3942813 -0.3234,0.5094582"
       style="fill:#1d3e67;fill-opacity:1;fill-rule:nonzero;stroke:none;stroke-width:0.00250002" />
    <path
       id="path8-5"
       d="m 7.9197253,4.8892456 c 0.5006,0 0.5006,-0.7176365 0,-0.7176365 h -0.465075 v 0.7176365 z m -0.323325,0.6822109 h -0.14175 v 0.996766 h -0.80185 V 3.4317973 h 1.253675 c 0.646775,0 1.1473,0.2968298 1.165025,1.0322165 0,0.5802593 -0.23475,0.9080896 -0.615725,1.0277415 l 0.85495,1.0764672 h -0.98785 l -0.726475,-0.996766"
       style="fill:#1d3e67;fill-opacity:1;fill-rule:nonzero;stroke:none;stroke-width:0.00250002" />
    <path
       id="path9-2"
       d="m 10.02835,5.536006 c 0,0.2303787 0.25695,0.3411304 0.509475,0.3411304 0.252475,0 0.504975,-0.1151768 0.504975,-0.3411304 V 4.4640138 c 0,-0.2436789 -0.26135,-0.3544306 -0.5183,-0.3544306 -0.24805,0 -0.49615,0.1240269 -0.49615,0.3544306 z M 9.2354253,4.4640138 c 0,-0.7220865 0.64675,-1.0765172 1.2979747,-1.0765172 0.651175,0 1.30235,0.3588307 1.30235,1.0765172 V 5.536006 c 0,0.7176615 -0.64675,1.0764922 -1.297925,1.0764922 -0.6512247,0 -1.3023997,-0.3588307 -1.3023997,-1.0764922 V 4.4640138"
       style="fill:#1d3e67;fill-opacity:1;fill-rule:nonzero;stroke:none;stroke-width:0.00250002" />
    <path
       id="path10-1"
       d="m 13.727325,3.4317973 h 0.98785 l -1.240425,1.5150242 1.236,1.621401 h -1.0056 L 12.903325,5.4474046 12.87675,5.4828801 V 6.5682225 H 12.079375 V 3.4317973 h 0.797375 v 1.1606686 l 0.850575,-1.1606686"
       style="fill:#1d3e67;fill-opacity:1;fill-rule:nonzero;stroke:none;stroke-width:0.00250002" />
    <path
       id="path11-3"
       d="m 15.7163,4.663317 h 1.2714 v 0.686661 h -1.2714 v 0.4695325 h 1.38215 v 0.748712 H 14.914475 V 3.4317973 H 17.09845 V 4.1760342 H 15.7163 V 4.663317"
       style="fill:#1d3e67;fill-opacity:1;fill-rule:nonzero;stroke:none;stroke-width:0.00250002" />
    <path
       id="path12-4"
       d="m 18.608975,4.8892456 c 0.5006,0 0.5006,-0.7176365 0,-0.7176365 H 18.14385 v 0.7176365 z m -0.32335,0.6822109 H 18.14385 v 0.996766 H 17.342025 V 3.4317973 h 1.25365 c 0.646775,0 1.14735,0.2968298 1.165075,1.0322165 0,0.5802593 -0.234775,0.9080896 -0.615725,1.0277415 L 20,6.5682225 h -0.98795 l -0.726425,-0.996766"
       style="fill:#1d3e67;fill-opacity:1;fill-rule:nonzero;stroke:none;stroke-width:0.00250002" />
  </g>
</svg>
