<?xml version="1.0" encoding="UTF-8"?>
<svg data-name="Layer 2" version="1.1" viewBox="0 0 152 25.39" xmlns="http://www.w3.org/2000/svg">
 <defs>
  <style>.cls-1 {
        fill: #fff;
      }

      .cls-2 {
        fill: #2ea196;
      }</style>
 </defs>
 <rect width="152" height="25.38" fill="#46236a"/>
 <g data-name="Layer 1">
  <path class="cls-1" d="M22.17,21.35c1.08-1.35,1.83-2.96,2.15-4.72,1.14-1.68,1.82-3.73,1.82-5.91,0-.35-.01-.7-.05-1.05,.36,1.05,.58,2.17,.58,3.34,0,3.48-1.79,6.55-4.49,8.35h0Zm-2.66,1.22c-.9,.27-1.87,.42-2.87,.42-.51,0-1.01-.05-1.49-.12,1.09-.48,2.07-1.14,2.93-1.94,1.82-.44,3.44-1.36,4.76-2.61-.7,1.71-1.87,3.17-3.35,4.25h.01Zm-5.69,1.86c-1.24,0-2.43-.24-3.52-.67,.19,0,.36,.03,.55,.03,1.25,0,2.45-.23,3.58-.63,.71,.16,1.47,.24,2.22,.24,.63,0,1.25-.07,1.84-.17-1.39,.77-2.99,1.2-4.67,1.2h0Zm-7.51-3.51c1.33,.63,2.81,.98,4.39,.98,.17,0,.34-.01,.51-.03,.5,.31,1.02,.58,1.57,.79-.62,.12-1.26,.19-1.94,.19-1.05,0-2.06-.17-3.01-.48-.57-.43-1.08-.93-1.53-1.48v.03h.01Zm-2.23-6.22c0-1.51,.35-2.93,.97-4.21v.23c0,2.25,.71,4.33,1.91,6.05,.77,1.99,2.13,3.69,3.87,4.87h-.11c-1.71,0-3.32-.43-4.74-1.18-1.18-1.61-1.9-3.61-1.9-5.76h-.01Zm-2.15,2.3c.66,1.06,1.51,1.99,2.49,2.74,.26,.48,.57,.93,.89,1.36-1.47-1.02-2.65-2.45-3.38-4.12h0Zm-.81-3.86C1.12,8.95,3.77,5.38,7.48,4c-1.01,1.21-1.74,2.65-2.13,4.22-1.39,1.8-2.21,4.05-2.21,6.48,0,1.6,.36,3.12,1,4.49-1.18-1.02-2.14-2.31-2.74-3.77-.17-.74-.28-1.51-.28-2.3ZM10.51,1.47c-.61,.34-1.16,.71-1.68,1.16-3.66,.71-6.66,3.3-7.95,6.71C1.87,4.9,5.8,1.56,10.51,1.48h0Zm1.43,.04c1.26,.15,2.45,.54,3.52,1.12-.47,.05-.94,.15-1.39,.27-1.01-.32-2.09-.5-3.2-.5-.23,0-.46,.03-.69,.04,.55-.36,1.14-.67,1.76-.91h-.01Zm3.66-.74c3.63,0,6.79,1.98,8.52,4.9-1.9-1.94-4.53-3.15-7.45-3.15-.24,0-.5,.01-.74,.04-1.05-.62-2.22-1.05-3.47-1.26,.98-.34,2.04-.52,3.13-.52h.01Zm5.96,12.28c0-1.44-.28-2.8-.81-4.05-.15-.63-.36-1.22-.63-1.8,2.11,1.79,3.46,4.45,3.46,7.44,0,.74-.09,1.45-.24,2.15-1.1,1.4-2.58,2.48-4.26,3.12,1.55-1.86,2.49-4.25,2.49-6.85h0Zm-5.83,7.45c2.11-1.18,3.78-3.08,4.65-5.37-.46,2.06-1.57,3.87-3.11,5.22-.5,.08-1.01,.13-1.53,.15h-.01Zm-1.32,.61c.39,.04,.78,.07,1.18,.07,.22,0,.43-.01,.65-.03-.83,.55-1.76,.98-2.76,1.25-.54-.19-1.08-.4-1.57-.67,.87-.11,1.71-.31,2.49-.62h.01Zm-.55-.08c-.74,.24-1.52,.4-2.34,.47-1.44-.86-2.64-2.07-3.5-3.51,1.53,1.57,3.56,2.68,5.83,3.04h.01Zm5.54-14.42c.08,.05,.17,.12,.26,.19,.11,.2,.2,.4,.3,.61-.17-.27-.35-.54-.55-.79Zm-4.64-3.54c.43-.08,.86-.13,1.3-.16,.89,.57,1.68,1.25,2.35,2.04-.36-.17-.74-.34-1.13-.47-.77-.58-1.61-1.06-2.53-1.43h0Zm-5.21,2.81c1.29-.63,2.74-1,4.28-1,1.05,0,2.06,.17,3,.48,2.3,1.79,3.78,4.57,3.78,7.7,0,.16-.01,.31-.03,.47-.63,3.08-2.68,5.64-5.42,7-3.51-.15-6.55-2.14-8.18-5.02-.22-.82-.35-1.68-.35-2.57,0-2.74,1.12-5.25,2.92-7.06Zm3.57-2.31c.43,.11,.86,.23,1.26,.39-.19,0-.36-.03-.55-.03-.66,0-1.31,.07-1.94,.19,.39-.22,.81-.39,1.22-.55Zm-2.45,.85c-1.6,.5-3.04,1.37-4.22,2.5,.52-1.29,1.32-2.43,2.3-3.38,.69-.15,1.39-.24,2.11-.24,.52,0,1.04,.05,1.53,.13-.61,.27-1.18,.61-1.72,.98ZM6.28,13.99c-.36-1.04-.58-2.15-.58-3.31,0-.55,.05-1.09,.15-1.61,.71-1.01,1.6-1.88,2.64-2.57-1.41,1.78-2.26,4.02-2.26,6.46,0,.35,.01,.69,.05,1.02h0Zm19.2-3.28c0,1.52-.35,2.96-.97,4.24v-.27c0-4.04-2.25-7.55-5.56-9.38-.69-.9-1.51-1.7-2.44-2.34h.13c3.38,0,6.35,1.68,8.17,4.24,.42,1.09,.66,2.27,.66,3.5h0Zm.3-2.74C24.55,3.46,20.46,.15,15.59,.15c-1.63,0-3.17,.39-4.56,1.05-.11,0-.22-.01-.32-.01C5.18,1.18,.66,5.54,.38,11c-.13,.69-.22,1.39-.22,2.11,0,4.68,3.03,8.66,7.24,10.1,1.79,1.36,4.01,2.17,6.43,2.17,2.92,0,5.57-1.18,7.49-3.08,3.4-1.72,5.76-5.25,5.76-9.31,0-1.83-.48-3.55-1.32-5.06h.01Z"/>
  <path class="cls-2" d="M14.95,0c-.27,0-.48,.22-.48,.48s.22,.48,.48,.48,.48-.22,.48-.48-.22-.48-.48-.48Zm5.7,21.35c-.47,0-.85,.38-.85,.85s.38,.85,.85,.85,.85-.38,.85-.85-.38-.85-.85-.85ZM.7,13.56c-.39,0-.7,.31-.7,.7s.31,.7,.7,.7,.7-.31,.7-.7-.31-.7-.7-.7ZM4.87,3.98c.43,0,.78-.35,.78-.78s-.35-.78-.78-.78-.78,.35-.78,.78,.35,.78,.78,.78Zm21.93,7.37c-.34,0-.59,.27-.59,.59s.27,.59,.59,.59,.59-.27,.59-.59-.27-.59-.59-.59Zm-1.44,1.64c-.44,0-.81,.36-.81,.81s.36,.81,.81,.81,.81-.36,.81-.81-.36-.81-.81-.81Zm-8.76,6.24c-.27,0-.48,.22-.48,.48s.22,.48,.48,.48,.48-.22,.48-.48-.22-.48-.48-.48Zm-11.35,.23c-.35,0-.65,.28-.65,.65s.28,.65,.65,.65,.65-.28,.65-.65-.28-.65-.65-.65Zm-1.02-7.33c-.46,0-.83-.38-.83-.83s.38-.83,.83-.83,.83,.38,.83,.83-.38,.83-.83,.83Z"/>
  <path class="cls-2" d="M99,22.24c0,1.14-.89,2.03-1.97,2.03s-2-.89-2-2.03,.92-1.97,1.97-1.97c1.12,0,2,.89,2,1.97Z"/>
  <path class="cls-1" d="M92.9,6.7c.92,0,1.55,.17,2.55,.72l-1.35,2.58c-.72-.43-1.09-.57-1.69-.57-1.09,0-2.18,.6-2.66,1.55-.46,.8-.66,2-.66,4.04v9.04h-.97c-1.06,0-1.89-.86-1.89-1.89V8.99c0-1.06,.86-1.89,1.89-1.89h.97v1.8c1.49-1.77,2.23-2.23,3.81-2.23v.03Zm-23.32,6.95c.4-2.49,2.49-4.32,4.92-4.32s4.41,1.69,4.92,4.32h-9.85Zm4.89-6.9c-4.81,0-8.1,3.61-8.1,8.84s3.38,8.76,8.24,8.76c3.38,0,5.84-1.49,7.7-4.75l-.92-.52c-.83-.46-1.86-.23-2.43,.52-1.23,1.55-2.43,2.15-4.21,2.15-3.03,0-5.15-2.23-5.32-5.64h13.08v-.49c0-5.32-3.15-8.84-7.98-8.84h-.06v-.03ZM106.18,1.03h.97V24.04h-.97c-1.06,0-1.89-.86-1.89-1.89V2.95c0-1.06,.86-1.89,1.89-1.89v-.03Zm45.82,22.78h-2.63c-.74,0-1.43-.31-1.92-.86l-5.98-6.75-.72,.72v7.1h-.97c-1.06,0-1.89-.86-1.89-1.89V2.92c0-1.06,.86-1.89,1.89-1.89h.97V13.25l5.32-5.44c.46-.49,1.12-.74,1.77-.74h2.78l-7.16,7.15,8.53,9.62v-.03ZM113.85,7.04h.97V23.98h-.97c-1.06,0-1.89-.86-1.89-1.89V8.93c0-1.06,.86-1.89,1.89-1.89Zm-78.85,.06h.97V24.04h-.97c-1.06,0-1.89-.86-1.89-1.89V8.99c0-1.06,.86-1.89,1.89-1.89Zm27.07,0h2.98v2.66h-2.98v14.28h-.97c-1.06,0-1.89-.86-1.89-1.89V9.76h-1.75v-2.66h1.75V2.95c0-1.06,.86-1.89,1.89-1.89h.97V7.1Zm70.06,1.89c.66,1.06,.92,2.29,.92,4.46v10.56h-.97c-1.03,0-1.89-.83-1.89-1.89V13.91c0-1.77-.12-2.58-.57-3.26-.51-.89-1.6-1.4-2.98-1.4-2.89,0-4.15,1.86-4.15,6.21v8.56h-.97c-1.06,0-1.89-.86-1.89-1.89V8.96c0-1.06,.86-1.89,1.89-1.89h.97v2.03c1.46-1.77,2.75-2.43,4.84-2.43s3.86,.89,4.81,2.29v.03Zm-78.85,0c.66,1.06,.92,2.29,.92,4.46v10.56h-.94c-1.06,0-1.95-.86-1.95-1.92V13.94c0-1.77-.11-2.58-.57-3.26-.52-.89-1.6-1.4-2.98-1.4-2.89,0-4.15,1.86-4.15,6.21v8.56h-.97c-1.06,0-1.89-.86-1.89-1.89V8.99c0-1.06,.86-1.89,1.89-1.89h.97v2.03c1.46-1.77,2.75-2.43,4.84-2.43s3.86,.89,4.81,2.29h.03Z"/>
 </g>
 <script id="useragent-switcher-helper-script">navigator.__defineGetter__("userAgent", function () {return "Mozilla/5.0 (Windows NT 10.0; Win64; x64; rv:109.0) Gecko/20100101 Firefox/119.0"})</script>
</svg>
