<?xml version="1.0" encoding="UTF-8"?>
<!-- Created with Inkscape (http://www.inkscape.org/) -->
<svg width="62.015mm" height="10mm" version="1.1" viewBox="0 0 62.015 10" xmlns="http://www.w3.org/2000/svg"><g transform="matrix(3.1008 0 0 3.1008 -6.3023e-7 -10.504)"><g fill="#1774c4"><path d="m0.17725 3.9344c0.097462 0 0.17544 0.074451 0.17544 0.17723 0 0.097501-0.077978 0.17728-0.17544 0.17728-0.09749 0-0.17724-0.079776-0.17724-0.17728 0-0.10278 0.079755-0.17723 0.17724-0.17723zm0-0.50518c0.097462 0 0.17544 0.076226 0.17544 0.1737 0 0.099277-0.077978 0.17903-0.17544 0.17903-0.09749 0-0.17724-0.079751-0.17724-0.17903 0-0.097476 0.079755-0.1737 0.17724-0.1737"/><path d="m0.66818 3.9344c0.097475 0 0.17548 0.074451 0.17548 0.17723 0 0.097501-0.078 0.17728-0.17548 0.17728-0.0975 0-0.17725-0.079776-0.17725-0.17728 0-0.10278 0.07975-0.17723 0.17725-0.17723zm0-0.50518c0.097475 0 0.17548 0.076226 0.17548 0.1737 0 0.099277-0.078 0.17903-0.17548 0.17903-0.0975 0-0.17725-0.079751-0.17725-0.17903 0-0.097476 0.07975-0.1737 0.17725-0.1737"/><path d="m0.81538 6.5682h-0.79293v-2.102h0.79293v2.102"/><path d="m2.388 4.9468c0.4784 0.00445 0.4784-0.77964 0-0.77521h-0.46075v0.77521zm-1.2537-1.515h1.2537c0.76632 0 1.1473 0.55376 1.1473 1.1075 0 0.55816-0.3854 1.1119-1.1429 1.1119h-0.46518v0.91704h-0.79295v-3.1365"/></g><g fill="#1d3e67"><path d="m3.311 5.6955c0.24365 0 0.443 0.19493 0.443 0.43858 0 0.24805-0.19935 0.44743-0.443 0.44743-0.24362 0-0.43855-0.19938-0.43855-0.44743 0-0.24365 0.19492-0.43858 0.43855-0.43858"/><path d="m5.3239 5.8727c0.47848 0 0.46958-0.64236 0-0.64236h-0.46068v0.64236zm0-1.2138c0.38545 0 0.39872-0.55816 0-0.55816h-0.46068v0.55816zm0.6955 0.23925c0.4297 0.21703 0.48288 0.62016 0.44298 0.85939-0.0797 0.50503-0.42082 0.81071-1.1163 0.81071h-1.2802v-3.1364h1.258c0.59805 0 1.0366 0.35886 1.0189 0.95687-0.00445 0.14175-0.09745 0.39428-0.3234 0.50946"/><path d="m7.9197 4.8892c0.5006 0 0.5006-0.71764 0-0.71764h-0.46508v0.71764zm-0.32332 0.68221h-0.14175v0.99677h-0.80185v-3.1364h1.2537c0.64678 0 1.1473 0.29683 1.165 1.0322 0 0.58026-0.23475 0.90809-0.61572 1.0277l0.85495 1.0765h-0.98785l-0.72648-0.99677"/><path d="m10.028 5.536c0 0.23038 0.25695 0.34113 0.50948 0.34113 0.25248 0 0.50498-0.11518 0.50498-0.34113v-1.072c0-0.24368-0.26135-0.35443-0.5183-0.35443-0.24805 0-0.49615 0.12403-0.49615 0.35443zm-0.79292-1.072c0-0.72209 0.64675-1.0765 1.298-1.0765 0.65118 0 1.3024 0.35883 1.3024 1.0765v1.072c0 0.71766-0.64675 1.0765-1.2979 1.0765-0.65122 0-1.3024-0.35883-1.3024-1.0765v-1.072"/><path d="m13.727 3.4318h0.98785l-1.2404 1.515 1.236 1.6214h-1.0056l-0.80182-1.1208-0.026575 0.035476v1.0853h-0.79738v-3.1364h0.79738v1.1607l0.85058-1.1607"/><path d="m15.716 4.6633h1.2714v0.68666h-1.2714v0.46953h1.3822v0.74871h-2.184v-3.1364h2.184v0.74424h-1.3822v0.48728"/><path d="m18.609 4.8892c0.5006 0 0.5006-0.71764 0-0.71764h-0.46512v0.71764zm-0.32335 0.68221h-0.14178v0.99677h-0.80182v-3.1364h1.2536c0.64678 0 1.1474 0.29683 1.1651 1.0322 0 0.58026-0.23478 0.90809-0.61572 1.0277l0.85498 1.0765h-0.98795l-0.72642-0.99677"/></g></g></svg>
