<?xml version="1.0" encoding="UTF-8"?>
<!-- Created with Inkscape (http://www.inkscape.org/) -->
<svg width="46.524mm" height="10mm" version="1.1" viewBox="0 0 46.524 10" xmlns="http://www.w3.org/2000/svg">
 <defs>
  <clipPath id="clipPath2">
   <path transform="translate(-381.14,-624.88)" d="m0 768h1366v-768h-1366z"/>
  </clipPath>
  <clipPath id="clipPath4">
   <path transform="translate(-426.88,-624.37)" d="m0 768h1366v-768h-1366z"/>
  </clipPath>
  <clipPath id="clipPath6">
   <path transform="translate(-478.52,-593.6)" d="m0 768h1366v-768h-1366z"/>
  </clipPath>
  <clipPath id="clipPath8">
   <path transform="translate(-549.12,-619.07)" d="m0 768h1366v-768h-1366z"/>
  </clipPath>
  <clipPath id="clipPath10">
   <path transform="translate(-571.74,-621.41)" d="m0 768h1366v-768h-1366z"/>
  </clipPath>
  <clipPath id="clipPath12">
   <path transform="translate(-673,-625.28)" d="m0 768h1366v-768h-1366z"/>
  </clipPath>
  <clipPath id="clipPath14">
   <path transform="translate(-302.49,-635.53)" d="m0 768h1366v-768h-1366z"/>
  </clipPath>
  <clipPath id="clipPath16">
   <path transform="translate(-216.83,-636.12)" d="m0 768h1366v-768h-1366z"/>
  </clipPath>
 </defs>
 <g transform="translate(-39.423 -88.9)">
  <g fill="#003c57">
   <path transform="matrix(.10069 0 0 -.10069 56.557 93.586)" d="m0 0v-31.277h-15.282v29.036c0 6.316-3.973 9.27-8.863 9.27-5.603 0-9.475-3.26-9.475-10.493v-27.813h-15.281v50.939h15.281v-4.788c2.751 3.769 7.845 6.215 14.569 6.215 10.289 0 19.051-7.336 19.051-21.089" clip-path="url(#clipPath2)"/>
   <path transform="matrix(.10069 0 0 -.10069 61.157 93.637)" d="m0 0c-1.63 5.909-6.215 8.048-10.799 8.048-5.807 0-9.678-2.852-11.105-8.048zm-9.373-18.542c4.177 0 7.743 1.63 9.78 3.871l12.226-7.029c-4.992-6.928-12.531-10.493-22.209-10.493-17.422 0-28.221 11.716-28.221 26.895 0 15.18 11.003 26.896 27.1 26.896 14.874 0 25.877-11.512 25.877-26.896 0-2.139-0.204-4.177-0.612-6.112h-36.166c1.935-5.298 6.622-7.132 12.225-7.132" clip-path="url(#clipPath4)"/>
   <path transform="matrix(.10069 0 0 -.10069 66.357 96.735)" d="m0 0-9.475 13.448-9.474-13.448h-17.523l18.236 25.877-17.625 25.062h17.523l8.863-12.633 8.864 12.633h17.523l-17.625-25.062 18.236-25.877z" clip-path="url(#clipPath6)"/>
   <path transform="matrix(.10069 0 0 -.10069 73.467 94.171)" d="m0 0c0 12.123-9.475 21.7-21.598 21.7-12.124 0-21.598-9.577-21.598-21.7s9.474-21.7 21.598-21.7c12.123 0 21.598 9.577 21.598 21.7m5.094 25.469v-48.493c0-15.282-11.309-23.942-25.368-23.942-11.92 0-20.375 4.789-24.043 12.226l4.483 2.547c2.649-5.4 8.354-9.883 19.56-9.883 12.735 0 20.274 7.438 20.274 19.052v9.372c-4.177-7.844-12.022-12.938-21.904-12.938-14.568 0-26.386 11.512-26.386 26.59s11.818 26.59 26.386 26.59c9.882 0 17.727-5.094 21.904-12.938v11.817z" clip-path="url(#clipPath8)"/>
   <path transform="matrix(.10069 0 0 -.10069 75.747 93.935)" d="m0 0h40.955c-1.121 12.429-9.882 19.357-19.866 19.357-11.615 0-20.07-8.049-21.089-19.357m46.252-2.547c0-0.815-0.102-1.63-0.102-2.445h-46.15c1.222-11.512 9.984-19.051 21.598-19.051 8.354 0 14.67 3.871 17.625 9.271l4.482-2.649c-4.176-6.928-12.123-11.512-22.209-11.512-15.689 0-26.794 11.206-26.794 26.59 0 14.976 10.799 26.59 26.387 26.59 15.485 0 25.163-12.837 25.163-26.794" clip-path="url(#clipPath10)"/>
   <path transform="matrix(.10069 0 0 -.10069 85.947 93.545)" d="m0 0v-31.684h-5.196v31.684c0 9.373-5.399 15.485-14.976 15.485-9.984 0-17.829-6.52-17.829-20.273v-26.896h-5.093v50.939h5.093v-9.679c3.872 7.54 10.392 10.8 18.237 10.8 12.123 0 19.764-8.049 19.764-20.376" clip-path="url(#clipPath12)"/>
   <path transform="matrix(.10069 0 0 -.10069 48.636 92.513)" d="m0 0c-3.201 3.202-7.335 4.904-11.527 5.106-0.562 0.027-1.126 0.027-1.688 0-3.158 0.198-6.259 1.5-8.672 3.914-2.377 2.377-3.674 5.422-3.901 8.53 0.029 0.608 0.024 1.217-0.011 1.825-0.232 4.143-1.927 8.219-5.092 11.385-6.832 6.833-17.91 6.835-24.743 3e-3 -6.834-6.832-6.835-17.91-4e-3 -24.743 3.202-3.203 7.335-4.904 11.528-5.106 0.562-0.027 1.125-0.027 1.687 0 3.158-0.198 6.26-1.5 8.673-3.914 2.376-2.377 3.674-5.422 3.9-8.531-0.029-0.607-0.023-1.216 0.011-1.824-0.196-3.16-1.499-6.264-3.914-8.678-2.396-2.396-5.471-3.695-8.605-3.907-0.608 0.032-1.217 0.032-1.825 1e-3 -4.169-0.216-8.275-1.914-11.46-5.098-6.833-6.832-6.835-17.91-3e-3 -24.743 6.832-6.834 17.91-6.835 24.743-4e-3 3.206 3.205 4.908 7.344 5.107 11.542 0.028 0.607 0.023 1.215-0.011 1.822 0.195 3.161 1.498 6.267 3.914 8.683 2.378 2.378 5.426 3.675 8.536 3.901 0.654-0.036 1.309-0.037 1.963 0 4.145 0.231 8.224 1.926 11.391 5.093 6.833 6.831 6.835 17.909 3e-3 24.743" clip-path="url(#clipPath14)"/>
  </g>
  <path transform="matrix(.10069 0 0 -.10069 40.01 92.454)" d="m0 0c7.199 6.446 18.26 5.835 24.706-1.364 6.445-7.199 5.835-18.26-1.364-24.706-7.199-6.445-18.26-5.835-24.706 1.364s-5.835 18.26 1.364 24.706" clip-path="url(#clipPath16)" fill="#fe6d74"/>
 </g>
</svg>
