<?xml version="1.0" encoding="UTF-8"?>
<svg xmlns="http://www.w3.org/2000/svg" version="1.1" viewBox="0 0 173.33 34.33">
  <defs>
    <style>
      .st0 {
        fill: #0052a0;
      }

      .st1 {
        fill: #0053a0;
        font-family: HelveticaNeue-Bold, 'Helvetica Neue';
        font-size: 18px;
        font-weight: 700;
      }

      .st2 {
        display: none;
      }
    </style>
  </defs>
  <g id="SOLID-OPTICS.COM" class="st2">
    <text class="st1" transform="translate(42.58 23.02)">
      <tspan x="0" y="0">SOLID OPTICS</tspan>
    </text>
  </g>
  <g id="SOLID-OPTICS.COM_copy">
    <g>
      <path class="st0" d="M45.99,20.19c.16.3.36.54.62.73.26.19.56.32.91.41.35.09.71.13,1.08.13.25,0,.52-.02.81-.06.29-.04.56-.12.81-.24s.46-.29.63-.5c.17-.21.25-.48.25-.8,0-.35-.11-.63-.33-.85-.22-.22-.51-.4-.87-.54s-.77-.27-1.22-.38-.92-.23-1.39-.36c-.48-.12-.95-.27-1.4-.44-.46-.17-.86-.4-1.22-.67-.36-.28-.65-.62-.87-1.04s-.33-.92-.33-1.5c0-.66.14-1.23.42-1.72.28-.49.65-.89,1.11-1.22.46-.32.97-.56,1.55-.72.58-.16,1.15-.23,1.73-.23.67,0,1.32.08,1.94.23.62.15,1.17.39,1.65.73.48.34.86.77,1.14,1.29.28.52.42,1.16.42,1.9h-2.74c-.02-.38-.1-.7-.24-.95s-.32-.45-.55-.59c-.23-.14-.49-.25-.78-.31s-.61-.09-.96-.09c-.23,0-.46.02-.68.07-.23.05-.44.13-.62.25-.19.12-.34.27-.46.45s-.18.41-.18.68c0,.25.05.46.14.61.1.16.28.3.57.43.28.13.67.26,1.17.4.5.13,1.15.3,1.95.5.24.05.57.14,1,.26.43.13.85.33,1.27.6.42.28.78.65,1.09,1.11s.46,1.05.46,1.77c0,.59-.11,1.13-.34,1.64-.23.5-.57.94-1.02,1.31-.45.37-1.01.65-1.67.85-.67.2-1.44.31-2.31.31-.71,0-1.4-.09-2.06-.26s-1.25-.45-1.76-.82c-.51-.37-.92-.85-1.22-1.42-.3-.58-.44-1.26-.43-2.05h2.74c0,.43.08.8.23,1.1Z"></path>
      <path class="st0" d="M55.38,14.31c.29-.82.7-1.54,1.24-2.15.54-.61,1.2-1.09,1.99-1.44.79-.35,1.67-.52,2.65-.52s1.88.17,2.66.52c.78.35,1.44.83,1.98,1.44.54.61.95,1.33,1.24,2.15s.43,1.71.43,2.67-.14,1.81-.43,2.62-.7,1.52-1.24,2.11c-.54.6-1.2,1.07-1.98,1.41-.78.34-1.67.51-2.66.51s-1.87-.17-2.65-.51c-.79-.34-1.45-.81-1.99-1.41-.54-.6-.95-1.3-1.24-2.11-.29-.81-.43-1.68-.43-2.62s.14-1.85.43-2.67ZM57.96,18.56c.13.51.33.97.6,1.38.28.41.64.74,1.08.98.44.25.98.37,1.62.37s1.18-.12,1.62-.37c.44-.25.8-.57,1.08-.98.28-.41.48-.87.6-1.38s.19-1.04.19-1.58-.06-1.11-.19-1.64c-.13-.53-.33-1-.6-1.41-.28-.41-.64-.74-1.08-.99-.44-.25-.98-.37-1.62-.37s-1.18.12-1.62.37c-.44.25-.8.58-1.08.99-.28.41-.48.88-.6,1.41-.13.53-.19,1.07-.19,1.64s.06,1.06.19,1.58Z"></path>
      <path class="st0" d="M72.34,10.51v10.48h6.26v2.38h-9.09v-12.85h2.83Z"></path>
      <path class="st0" d="M83.01,10.51v12.85h-2.83v-12.85h2.83Z"></path>
      <path class="st0" d="M91.04,10.51c.83,0,1.6.13,2.31.4.71.26,1.33.66,1.85,1.19.52.53.93,1.19,1.22,1.98s.44,1.72.44,2.79c0,.94-.12,1.8-.36,2.59-.24.79-.6,1.48-1.09,2.05s-1.09,1.03-1.82,1.36c-.73.33-1.58.5-2.56.5h-5.54v-12.85h5.54ZM90.84,20.98c.41,0,.8-.07,1.19-.2.38-.13.73-.35,1.03-.66s.54-.71.72-1.2c.18-.49.27-1.09.27-1.8,0-.65-.06-1.23-.19-1.75s-.33-.97-.62-1.34c-.29-.37-.67-.66-1.14-.85-.47-.2-1.06-.3-1.75-.3h-2.02v8.1h2.52Z"></path>
      <path class="st0" d="M103.71,14.31c.29-.82.7-1.54,1.24-2.15.54-.61,1.2-1.09,1.99-1.44.79-.35,1.67-.52,2.66-.52s1.88.17,2.66.52c.78.35,1.44.83,1.98,1.44.54.61.95,1.33,1.24,2.15s.43,1.71.43,2.67-.14,1.81-.43,2.62-.7,1.52-1.24,2.11c-.54.6-1.2,1.07-1.98,1.41-.78.34-1.67.51-2.66.51s-1.87-.17-2.66-.51c-.79-.34-1.45-.81-1.99-1.41-.54-.6-.95-1.3-1.24-2.11s-.43-1.68-.43-2.62.14-1.85.43-2.67ZM106.29,18.56c.13.51.33.97.6,1.38.28.41.64.74,1.08.98.44.25.98.37,1.62.37s1.18-.12,1.62-.37c.44-.25.8-.57,1.08-.98.28-.41.48-.87.6-1.38s.19-1.04.19-1.58-.06-1.11-.19-1.64c-.13-.53-.33-1-.6-1.41-.28-.41-.64-.74-1.08-.99-.44-.25-.98-.37-1.62-.37s-1.18.12-1.62.37c-.44.25-.8.58-1.08.99s-.48.88-.6,1.41c-.13.53-.19,1.07-.19,1.64s.06,1.06.19,1.58Z"></path>
      <path class="st0" d="M123.64,10.51c.8,0,1.49.12,2.05.35s1.02.54,1.38.93c.35.38.61.82.77,1.31s.24,1,.24,1.53-.08,1.02-.24,1.52-.42.94-.77,1.32c-.35.38-.81.69-1.38.93s-1.25.35-2.05.35h-2.97v4.61h-2.83v-12.85h5.8ZM122.86,16.55c.32,0,.64-.02.94-.07s.56-.14.79-.28c.23-.14.41-.33.55-.59.14-.25.21-.58.21-.99s-.07-.74-.21-.99c-.14-.25-.32-.45-.55-.58-.23-.14-.49-.23-.79-.28s-.61-.07-.94-.07h-2.2v3.85h2.2Z"></path>
      <path class="st0" d="M128.84,12.88v-2.38h10.53v2.38h-3.85v10.48h-2.83v-10.48h-3.85Z"></path>
      <path class="st0" d="M143.67,10.51v12.85h-2.83v-12.85h2.83Z"></path>
      <path class="st0" d="M154.4,13.94c-.17-.27-.38-.51-.63-.71-.25-.2-.54-.36-.86-.48-.32-.11-.65-.17-1-.17-.64,0-1.18.12-1.62.37-.44.25-.8.58-1.08.99s-.48.88-.6,1.41c-.13.53-.19,1.07-.19,1.64s.06,1.06.19,1.58.33.97.6,1.38c.28.41.64.74,1.08.98.44.25.98.37,1.62.37.86,0,1.54-.26,2.03-.79.49-.53.78-1.22.89-2.09h2.74c-.07.8-.26,1.53-.56,2.18s-.7,1.2-1.19,1.66c-.49.46-1.07.8-1.73,1.04-.66.24-1.39.36-2.18.36-.98,0-1.87-.17-2.66-.51-.79-.34-1.45-.81-1.99-1.41-.54-.6-.95-1.3-1.24-2.11s-.43-1.68-.43-2.62.14-1.85.43-2.67.7-1.54,1.24-2.15c.54-.61,1.2-1.09,1.99-1.44.79-.35,1.67-.52,2.66-.52.71,0,1.38.1,2.01.31.63.2,1.19.5,1.69.89.5.39.91.87,1.23,1.45.32.58.53,1.24.61,1.98h-2.74c-.05-.32-.16-.62-.32-.89Z"></path>
      <path class="st0" d="M161.65,20.19c.16.3.36.54.62.73.26.19.56.32.91.41.35.09.71.13,1.08.13.25,0,.52-.02.81-.06.29-.04.56-.12.81-.24s.46-.29.63-.5.25-.48.25-.8c0-.35-.11-.63-.33-.85-.22-.22-.51-.4-.87-.54-.36-.14-.77-.27-1.22-.38s-.92-.23-1.39-.36c-.48-.12-.95-.27-1.4-.44-.46-.17-.86-.4-1.22-.67-.36-.28-.65-.62-.87-1.04-.22-.41-.33-.92-.33-1.5,0-.66.14-1.23.42-1.72.28-.49.65-.89,1.11-1.22.46-.32.97-.56,1.55-.72.58-.16,1.15-.23,1.73-.23.67,0,1.32.08,1.94.23.62.15,1.17.39,1.65.73.48.34.86.77,1.14,1.29.28.52.42,1.16.42,1.9h-2.74c-.02-.38-.11-.7-.24-.95s-.32-.45-.55-.59c-.23-.14-.49-.25-.78-.31s-.62-.09-.96-.09c-.23,0-.46.02-.68.07-.23.05-.44.13-.62.25-.19.12-.34.27-.46.45-.12.18-.18.41-.18.68,0,.25.05.46.14.61.1.16.29.3.57.43.28.13.67.26,1.17.4.5.13,1.15.3,1.95.5.24.05.57.14,1,.26s.85.33,1.27.6.78.65,1.09,1.11.46,1.05.46,1.77c0,.59-.11,1.13-.34,1.64-.23.5-.57.94-1.02,1.31-.45.37-1.01.65-1.67.85-.67.2-1.44.31-2.31.31-.71,0-1.4-.09-2.06-.26s-1.25-.45-1.76-.82c-.51-.37-.92-.85-1.21-1.42-.3-.58-.44-1.26-.43-2.05h2.74c0,.43.08.8.23,1.1Z"></path>
    </g>
  </g>
  <g id="C_x3D_">
    <g>
      <g>
        <path class="st0" d="M29.47,12.98h-8v2.79h8c.7,0,1.28-.63,1.28-1.39s-.58-1.39-1.28-1.39Z"></path>
        <path class="st0" d="M34.64,15.77c.7,0,1.28-.63,1.28-1.39s-.58-1.39-1.28-1.39h-1.59c-.7,0-1.28.63-1.28,1.39s.58,1.39,1.28,1.39h1.59Z"></path>
        <path class="st0" d="M39.46,14.38c0-.76-.57-1.38-1.26-1.39h0s0,0,0,0,0,0,0,0h0c-.7.01-1.26.63-1.26,1.39s.57,1.38,1.26,1.39h0s0,0,0,0,0,0,0,0h0c.7-.01,1.26-.63,1.26-1.39Z"></path>
      </g>
      <g>
        <path class="st0" d="M29.47,18.09h-8v2.79h8c.7,0,1.28-.63,1.28-1.39s-.58-1.39-1.28-1.39Z"></path>
        <path class="st0" d="M34.64,20.88c.7,0,1.28-.63,1.28-1.39s-.58-1.39-1.28-1.39h-1.59c-.7,0-1.28.63-1.28,1.39s.58,1.39,1.28,1.39h1.59Z"></path>
        <path class="st0" d="M39.46,19.49c0-.76-.57-1.38-1.26-1.39h0s0,0,0,0,0,0,0,0h0c-.7.01-1.26.63-1.26,1.39s.57,1.38,1.26,1.39h0s0,0,0,0h0c.7-.01,1.26-.63,1.26-1.39Z"></path>
      </g>
      <path class="st0" d="M28.65,23.54h-3.69c-1.85,2.11-4.57,3.46-7.59,3.46-5.57,0-10.08-4.51-10.08-10.08s4.51-10.08,10.08-10.08c3.02,0,5.75,1.36,7.59,3.47h3.69c.51,0,.92-.43.92-.94,0-.2-.06-.39-.17-.54l-.08-.12c-2.62-3.8-7-6.29-11.96-6.29-8.01,0-14.51,6.5-14.51,14.51s6.5,14.51,14.51,14.51c5.02,0,9.44-2.54,12.04-6.41h0c.11-.15.17-.34.17-.54,0-.51-.41-.93-.92-.93Z"></path>
    </g>
    <text></text>
  </g>
</svg>
