<?xml version="1.0" encoding="UTF-8" standalone="no"?>
<!-- Created with Inkscape (http://www.inkscape.org/) -->

<svg
   width="155.18mm"
   height="34.785mm"
   version="1.1"
   viewBox="0 0 155.18 34.785"
   id="svg34"
   sodipodi:docname="esnog33-framed.svg"
   inkscape:version="1.3.2 (091e20e, 2023-11-25)"
   xmlns:inkscape="http://www.inkscape.org/namespaces/inkscape"
   xmlns:sodipodi="http://sodipodi.sourceforge.net/DTD/sodipodi-0.dtd"
   xmlns="http://www.w3.org/2000/svg"
   xmlns:svg="http://www.w3.org/2000/svg">
  <sodipodi:namedview
     id="namedview34"
     pagecolor="#ffffff"
     bordercolor="#000000"
     borderopacity="0.25"
     inkscape:showpageshadow="2"
     inkscape:pageopacity="0.0"
     inkscape:pagecheckerboard="0"
     inkscape:deskcolor="#d1d1d1"
     inkscape:document-units="mm"
     inkscape:zoom="3.2511419"
     inkscape:cx="293.28157"
     inkscape:cy="65.669234"
     inkscape:window-width="2160"
     inkscape:window-height="1040"
     inkscape:window-x="2691"
     inkscape:window-y="732"
     inkscape:window-maximized="0"
     inkscape:current-layer="svg34" />
  <defs
     id="defs16">
    <clipPath
       id="clipPath172">
      <path
         transform="translate(0,2.5e-5)"
         d="m0 0h595.92v841.92h-595.92z"
         id="path1" />
    </clipPath>
    <clipPath
       id="clipPath174">
      <path
         transform="translate(0,2.5e-5)"
         d="m0 0h595.92v841.92h-595.92z"
         id="path2" />
    </clipPath>
    <clipPath
       id="clipPath176">
      <path
         transform="translate(0,2.5e-5)"
         d="m0 0h595.92v841.92h-595.92z"
         id="path3" />
    </clipPath>
    <clipPath
       id="clipPath178">
      <path
         transform="translate(0,2.5e-5)"
         d="m0 0h595.92v841.92h-595.92z"
         id="path4" />
    </clipPath>
    <clipPath
       id="clipPath180">
      <path
         transform="translate(0,2.5e-5)"
         d="m0 0h595.92v841.92h-595.92z"
         id="path5" />
    </clipPath>
    <clipPath
       id="clipPath182">
      <path
         transform="translate(0,2.5e-5)"
         d="m0 0h595.92v841.92h-595.92z"
         id="path6" />
    </clipPath>
    <clipPath
       id="clipPath184">
      <path
         transform="translate(0,2.5e-5)"
         d="m0 0h595.92v841.92h-595.92z"
         id="path7" />
    </clipPath>
    <clipPath
       id="clipPath186">
      <path
         transform="translate(0,2.5e-5)"
         d="m0 0h595.92v841.92h-595.92z"
         id="path8" />
    </clipPath>
    <clipPath
       id="clipPath188">
      <path
         transform="translate(0,2.5e-5)"
         d="m0 0h595.92v841.92h-595.92z"
         id="path9" />
    </clipPath>
    <clipPath
       id="clipPath190">
      <path
         transform="translate(0,2.5e-5)"
         d="m0 0h595.92v841.92h-595.92z"
         id="path10" />
    </clipPath>
    <clipPath
       id="clipPath192">
      <path
         transform="translate(0,2.5e-5)"
         d="m0 0h595.92v841.92h-595.92z"
         id="path11" />
    </clipPath>
    <clipPath
       id="clipPath194">
      <path
         transform="translate(0,2.5e-5)"
         d="m0 0h595.92v841.92h-595.92z"
         id="path12" />
    </clipPath>
    <clipPath
       id="clipPath196">
      <path
         transform="translate(0,2.5e-5)"
         d="m0 0h595.92v841.92h-595.92z"
         id="path13" />
    </clipPath>
    <clipPath
       id="clipPath198">
      <path
         transform="translate(0,2.5e-5)"
         d="m0 0h595.92v841.92h-595.92z"
         id="path14" />
    </clipPath>
    <clipPath
       id="clipPath200">
      <path
         transform="translate(0,2.5e-5)"
         d="m0 0h595.92v841.92h-595.92z"
         id="path15" />
    </clipPath>
    <clipPath
       id="clipPath202">
      <path
         transform="translate(0,2.5e-5)"
         d="m0 0h595.92v841.92h-595.92z"
         id="path16" />
    </clipPath>
  </defs>
  <path
     transform="matrix(0.35278,0,0,-0.35278,-98.113,211.04)"
     d="m 351.23,549.6 h -21.315 c -5.4,0 -9.275,-0.994 -11.626,-2.98 -2.352,-1.987 -3.527,-5.239 -3.527,-9.759 v -13.744 c 0,-4.544 1.175,-7.803 3.527,-9.777 2.351,-1.974 6.226,-2.961 11.626,-2.961 h 21.315 c 0.732,0 1.326,0.594 1.326,1.325 v 6.884 c 0,0.732 -0.594,1.326 -1.326,1.326 h -20.793 c -1.684,0 -2.787,0.21 -3.31,0.633 -0.522,0.422 -0.783,1.304 -0.783,2.645 v 0.871 c 0,0.733 0.594,1.326 1.325,1.326 h 23.561 c 0.732,0 1.326,0.594 1.326,1.326 v 6.884 c 0,0.732 -0.594,1.326 -1.326,1.326 h -23.561 c -0.731,0 -1.325,0.593 -1.325,1.325 v 0.537 c 0,1.316 0.268,2.191 0.805,2.626 0.537,0.434 1.633,0.651 3.288,0.651 h 20.793 c 0.732,0 1.326,0.594 1.326,1.327 v 6.883 c 0,0.732 -0.594,1.326 -1.326,1.326"
     clip-path="url(#clipPath172)"
     fill="#007fc9"
     id="path17" />
  <path
     transform="matrix(0.35278,0,0,-0.35278,-98.113,211.04)"
     d="m 394.51,531.76 c -2.933,2.185 -6.967,3.277 -12.104,3.277 H 372.26 c -1.307,0 -2.258,0.192 -2.853,0.578 -0.594,0.385 -0.892,0.999 -0.892,1.844 0,0.843 0.298,1.465 0.892,1.862 0.595,0.397 1.546,0.596 2.853,0.596 h 23.274 c 0.733,0 1.327,0.593 1.327,1.326 v 7.032 c 0,0.733 -0.594,1.326 -1.327,1.326 h -22.926 c -4.789,0 -8.593,-1.099 -11.408,-3.296 -2.815,-2.198 -4.223,-5.147 -4.223,-8.846 0,-3.701 1.408,-6.649 4.223,-8.846 2.815,-2.198 6.619,-3.297 11.408,-3.297 h 10.232 c 1.597,0 2.743,-0.199 3.441,-0.596 0.696,-0.397 1.044,-1.056 1.044,-1.974 0,-0.944 -0.355,-1.627 -1.067,-2.049 -0.711,-0.422 -1.851,-0.633 -3.418,-0.633 h -23.71 c -0.732,0 -1.326,-0.594 -1.326,-1.326 v -7.032 c 0,-0.732 0.594,-1.326 1.326,-1.326 h 23.276 c 5.137,0 9.171,1.105 12.104,3.315 2.932,2.21 4.397,5.252 4.397,9.126 0,3.774 -1.465,6.753 -4.397,8.939"
     clip-path="url(#clipPath174)"
     fill="#007fc9"
     id="path18" />
  <path
     d="m 109.76,12.72 h 8.0635 c 1.90573,0 3.34853,0.3461 4.3284,1.0383 0.97987,0.6922 1.4698,1.708 1.4698,3.0474 v 2.09 c 0,0.907933 -0.3416,1.640567 -1.0248,2.1979 -0.6742,0.548353 -1.58213,0.83152 -2.7238,0.8495 1.26753,0.06293 2.2474,0.404533 2.9396,1.0248 0.6922,0.620273 1.0383,1.465273 1.0383,2.535 v 2.2654 c 0,1.3394 -0.49893,2.3597 -1.4968,3.0609 -0.9888,0.7012 -2.4316,1.0518 -4.3284,1.0518 h -8.4546 v -4.0318 h 7.8073 c 0.854,0 1.4608,-0.148327 1.8204,-0.44498 0.35957,-0.30564 0.53936,-0.81804 0.53936,-1.5372 0,-0.719133 -0.17979,-1.227033 -0.53936,-1.5237 -0.35059,-0.296647 -0.95739,-0.44497 -1.8204,-0.44497 h -4.6116 v -3.5868 h 4.4768 c 0.845,0 1.4383,-0.13484 1.7799,-0.40452 0.3416,-0.269687 0.5124,-0.732653 0.5124,-1.3889 0,-0.656233 -0.1708,-1.1192 -0.5124,-1.3889 -0.34161,-0.269687 -0.93491,-0.40453 -1.7799,-0.40453 H 109.76 Z"
     fill="#1941ad"
     stroke-linecap="square"
     stroke-width="0.5186"
     aria-label="32"
     id="path19"
     sodipodi:nodetypes="cssssccssscsccscscsccssssscc" />
  <g
     fill="#007fc9"
     id="g33"
     transform="translate(-141.82,-115.89)">
    <path
       transform="matrix(0.35278,0,0,-0.35278,43.707,326.93)"
       d="m 460.22,586.07 c -3.445,0 -6.236,-2.797 -6.229,-6.243 l 0.123,-54.518 c 0,-1.396 0.134,-2.454 -0.252,-3.291 -0.403,-0.871 -1.254,-1.197 -2.166,-1.197 -1.065,0 -1.572,0.381 -2.179,1.147 -0.61,0.765 -1.08,2.012 -1.414,3.741 L 443.77,548.7 c -0.821,4.456 -2.492,7.813 -5.016,10.075 -2.524,2.261 -5.853,3.392 -9.987,3.392 -4.531,0 -8.171,-1.355 -10.923,-4.065 -2.752,-2.711 -4.127,-6.293 -4.127,-10.748 v -37.277 c 0,-0.732 0.594,-1.326 1.326,-1.326 h 9.388 c 0.732,0 1.325,0.594 1.325,1.326 v 34.634 c 0,1.396 0.275,2.493 0.821,3.291 0.547,0.798 1.278,1.197 2.19,1.197 1.032,0 1.853,-0.391 2.462,-1.172 0.608,-0.781 1.095,-2.07 1.46,-3.865 l 4.286,-22.842 c 0.85,-4.457 2.538,-7.814 5.062,-10.075 2.524,-2.262 5.853,-3.391 9.988,-3.391 4.53,0 7.583,1.354 10.319,4.064 2.736,2.71 4.105,6.292 4.105,10.748 v 57.175 c 0,3.44 -2.789,6.229 -6.229,6.229"
       clip-path="url(#clipPath176)"
       id="path20" />
    <path
       transform="matrix(0.35278,0,0,-0.35278,43.707,326.93)"
       d="m 507.73,527.45 c 0,-2.095 -0.567,-3.724 -1.702,-4.888 -1.136,-1.164 -2.725,-1.745 -4.768,-1.745 h -11.287 c -2.044,0 -3.633,0.581 -4.768,1.745 -1.136,1.164 -1.703,2.793 -1.703,4.888 v 15.112 c 0,2.095 0.567,3.723 1.703,4.888 1.135,1.163 2.724,1.745 4.768,1.745 h 11.287 c 2.043,0 3.632,-0.582 4.768,-1.745 1.135,-1.165 1.702,-2.793 1.702,-4.888 z m -4.378,34.712 H 487.88 c -5.481,0 -9.738,-1.554 -12.77,-4.663 -3.033,-3.11 -4.549,-7.473 -4.549,-13.092 v -18.803 c 0,-5.619 1.516,-9.983 4.549,-13.092 3.032,-3.109 7.289,-4.663 12.77,-4.663 h 15.472 c 5.481,0 9.737,1.554 12.771,4.663 3.033,3.109 4.548,7.473 4.548,13.092 v 18.803 c 0,5.619 -1.515,9.982 -4.548,13.092 -3.034,3.109 -7.29,4.663 -12.771,4.663"
       clip-path="url(#clipPath178)"
       id="path21" />
    <path
       transform="matrix(0.36485,0,0,-0.36485,37.375,333.39)"
       d="m 568.55,539.8 h -20.709 c -0.732,0 -1.326,-0.593 -1.326,-1.326 v -8.895 c 0,-0.733 0.594,-1.326 1.326,-1.326 h 8.063 c 0.732,0 1.326,-0.594 1.326,-1.327 v -3.881 c 0,-0.732 -0.594,-1.326 -1.326,-1.326 h -14.003 c -1.598,0 -2.779,0.382 -3.545,1.147 -0.767,0.765 -1.15,1.945 -1.15,3.541 v 17.157 c 0,1.629 0.383,2.825 1.15,3.591 0.766,0.765 1.947,1.147 3.545,1.147 h 24.684 c 0.733,0 1.326,0.594 1.326,1.326 v 10.316 c 0,0.731 -0.593,1.325 -1.326,1.325 h -25.451 c -5.173,0 -9.245,-1.521 -12.215,-4.563 -2.97,-3.043 -4.455,-7.207 -4.455,-12.494 v -18.403 c 0,-5.287 1.485,-9.451 4.455,-12.494 2.97,-3.042 7.042,-4.563 12.215,-4.563 h 27.416 c 0.732,0 1.325,0.593 1.325,1.326 v 28.396 c 0,0.733 -0.593,1.326 -1.325,1.326"
       clip-path="url(#clipPath180)"
       id="path22" />
    <path
       transform="matrix(0.35278,0,0,-0.35278,43.707,326.93)"
       d="m 406.13,520.66 c -2.914,0 -5.275,-2.362 -5.275,-5.275 0,-2.914 2.361,-5.276 5.275,-5.276 2.913,0 5.275,2.362 5.275,5.276 0,2.913 -2.362,5.275 -5.275,5.275"
       clip-path="url(#clipPath182)"
       id="path23" />
    <path
       transform="matrix(0.35278,0,0,-0.35278,43.707,326.93)"
       d="m 443.71,579.87 c 0.181,-2.145 1.945,-3.592 3.115,-4.324 0.513,-0.321 1.191,-0.114 1.44,0.438 l 0.435,0.964 c 0.201,0.447 0.051,0.974 -0.359,1.243 -0.723,0.474 -1.541,1.207 -1.6,1.939 -0.053,0.657 0.545,1.506 1.665,2.387 0.41,0.323 0.502,0.907 0.212,1.34 l -0.583,0.869 c -0.32,0.479 -0.982,0.592 -1.438,0.239 -2.067,-1.604 -3.037,-3.315 -2.887,-5.095"
       clip-path="url(#clipPath184)"
       id="path24" />
    <path
       transform="matrix(0.35278,0,0,-0.35278,43.707,326.93)"
       d="m 438.75,579.66 c 0.272,-3.438 3.065,-5.84 4.569,-6.896 0.49,-0.342 1.166,-0.186 1.452,0.338 l 0.504,0.92 c 0.243,0.443 0.121,1 -0.29,1.294 -1.092,0.782 -3.034,2.458 -3.202,4.584 -0.137,1.725 0.916,3.555 3.131,5.447 0.404,0.345 0.465,0.948 0.14,1.368 l -0.64,0.826 c -0.351,0.453 -1.009,0.516 -1.444,0.145 -3.02,-2.573 -4.439,-5.27 -4.22,-8.026"
       clip-path="url(#clipPath186)"
       id="path25" />
    <path
       transform="matrix(0.35278,0,0,-0.35278,43.707,326.93)"
       d="m 439.12,570.62 c 0.459,-0.366 1.133,-0.258 1.456,0.232 l 0.579,0.878 c 0.283,0.429 0.196,1.001 -0.203,1.325 -1.352,1.097 -4.146,3.758 -4.278,7.081 -0.097,2.442 1.278,4.896 4.091,7.303 0.405,0.346 0.46,0.953 0.131,1.372 l -0.645,0.821 c -0.353,0.449 -1.007,0.509 -1.441,0.139 -3.579,-3.056 -5.319,-6.341 -5.175,-9.776 0.192,-4.612 3.782,-8.014 5.485,-9.375"
       clip-path="url(#clipPath188)"
       id="path26" />
    <path
       transform="matrix(0.35278,0,0,-0.35278,43.707,326.93)"
       d="m 473.44,575.55 c 1.169,0.732 2.933,2.179 3.113,4.323 0.151,1.78 -0.82,3.49 -2.887,5.094 -0.455,0.354 -1.118,0.241 -1.439,-0.238 l -0.582,-0.869 c -0.29,-0.433 -0.198,-1.018 0.211,-1.34 1.12,-0.882 1.719,-1.73 1.666,-2.387 -0.06,-0.731 -0.877,-1.464 -1.599,-1.938 -0.403,-0.266 -0.553,-0.779 -0.367,-1.221 l 0.443,-0.985 c 0.248,-0.553 0.926,-0.76 1.441,-0.439"
       clip-path="url(#clipPath190)"
       id="path27" />
    <path
       transform="matrix(0.35278,0,0,-0.35278,43.707,326.93)"
       d="m 471.82,576.4 -0.261,0.58 c 0.004,-0.008 0.005,-0.017 0.009,-0.024 z"
       clip-path="url(#clipPath192)"
       id="path28" />
    <path
       transform="matrix(0.35278,0,0,-0.35278,43.707,326.93)"
       d="m 471.56,576.98 -0.362,0.808 z"
       clip-path="url(#clipPath194)"
       id="path29" />
    <path
       transform="matrix(0.35278,0,0,-0.35278,43.707,326.93)"
       d="m 478.48,579.91 c -0.164,-2.145 -2.11,-3.819 -3.205,-4.598 -0.411,-0.293 -0.533,-0.85 -0.291,-1.293 l 0.506,-0.92 c 0.286,-0.522 0.963,-0.678 1.451,-0.336 1.504,1.055 4.299,3.458 4.571,6.897 0.218,2.755 -1.201,5.452 -4.22,8.025 -0.436,0.372 -1.093,0.308 -1.444,-0.144 l -0.639,-0.826 c -0.326,-0.42 -0.266,-1.024 0.138,-1.369 2.211,-1.888 3.265,-3.714 3.133,-5.436"
       clip-path="url(#clipPath196)"
       id="path30" />
    <path
       transform="matrix(0.35278,0,0,-0.35278,43.707,326.93)"
       d="m 483.59,580.14 c -0.132,-3.322 -2.926,-5.982 -4.277,-7.08 -0.396,-0.321 -0.484,-0.887 -0.209,-1.315 l 0.585,-0.887 c 0.323,-0.49 0.997,-0.599 1.456,-0.233 1.703,1.362 5.292,4.763 5.484,9.375 0.145,3.434 -1.597,6.719 -5.176,9.775 -0.433,0.37 -1.088,0.31 -1.44,-0.138 l -0.646,-0.822 c -0.329,-0.419 -0.272,-1.026 0.132,-1.372 2.813,-2.407 4.189,-4.86 4.091,-7.303"
       clip-path="url(#clipPath198)"
       id="path31" />
    <path
       transform="matrix(0.35278,0,0,-0.35278,43.707,326.93)"
       d="m 479.11,571.74 -0.508,0.772 z"
       clip-path="url(#clipPath200)"
       id="path32" />
    <path
       transform="matrix(0.35278,0,0,-0.35278,43.707,326.93)"
       d="m 479.43,571.24 -0.328,0.499 c 0.003,-0.004 0.004,-0.008 0.007,-0.012 z"
       clip-path="url(#clipPath202)"
       id="path33" />
  </g>
  <path
     d="m 124.9287,12.72 h 8.0635 c 1.90573,0 3.34853,0.3461 4.3284,1.0383 0.97987,0.6922 1.4698,1.708 1.4698,3.0474 v 2.09 c 0,0.907933 -0.3416,1.640567 -1.0248,2.1979 -0.6742,0.548353 -1.58213,0.83152 -2.7238,0.8495 1.26753,0.06293 2.2474,0.404533 2.9396,1.0248 0.6922,0.620273 1.0383,1.465273 1.0383,2.535 v 2.2654 c 0,1.3394 -0.49893,2.3597 -1.4968,3.0609 -0.9888,0.7012 -2.4316,1.0518 -4.3284,1.0518 h -8.4546 v -4.0318 h 7.8073 c 0.854,0 1.4608,-0.148327 1.8204,-0.44498 0.35957,-0.30564 0.53936,-0.81804 0.53936,-1.5372 0,-0.719133 -0.17979,-1.227033 -0.53936,-1.5237 -0.35059,-0.296647 -0.95739,-0.44497 -1.8204,-0.44497 h -4.6116 v -3.5868 h 4.4768 c 0.845,0 1.4383,-0.13484 1.7799,-0.40452 0.3416,-0.269687 0.5124,-0.732653 0.5124,-1.3889 0,-0.656233 -0.1708,-1.1192 -0.5124,-1.3889 -0.34161,-0.269687 -0.93491,-0.40453 -1.7799,-0.40453 h -7.4837 z"
     fill="#1941ad"
     stroke-linecap="square"
     stroke-width="0.5186"
     aria-label="32"
     id="path19-9"
     sodipodi:nodetypes="cssssccssscsccscscsccssssscc" />
</svg>
