<?xml version="1.0" encoding="UTF-8"?>
<!-- Created with Inkscape (http://www.inkscape.org/) -->
<svg width="54.754mm" height="10mm" version="1.1" viewBox="0 0 54.754 10" xmlns="http://www.w3.org/2000/svg"><defs><clipPath id="D"><path transform="translate(-170.87 -125.41)" d="m0 454h2551.2v-454h-2551.2z"/></clipPath><clipPath id="N"><path transform="translate(-354.77 -217.43)" d="m0 454h2551.2v-454h-2551.2z"/></clipPath><clipPath id="P"><path transform="translate(-520.88 -252.42)" d="m0 454h2551.2v-454h-2551.2z"/></clipPath><clipPath id="R"><path transform="translate(-657.99 -150.64)" d="m0 454h2551.2v-454h-2551.2z"/></clipPath><clipPath id="T"><path transform="translate(-836.16 -149.15)" d="m0 454h2551.2v-454h-2551.2z"/></clipPath><clipPath id="V"><path transform="translate(-947.89 -238.98)" d="m0 454h2551.2v-454h-2551.2z"/></clipPath><clipPath id="X"><path d="m0 454h2551.2v-454h-2551.2z"/></clipPath><clipPath id="Z"><path transform="translate(-1063.8 -238.98)" d="m0 454h2551.2v-454h-2551.2z"/></clipPath></defs><g transform="matrix(.34221 0 0 .34221 -8.7827 -45.815)" fill="#1a5586"><g transform="matrix(.15067 0 0 -.15067 33.587 157.13)"><path class="B" d="m0 0h-2.852c-0.09 0.04-0.177 0.108-0.27 0.116-2.318 0.2-4.455 0.997-6.482 2.075-2.915 1.552-5.373 3.675-7.409 6.271-1.983 2.53-3.592 5.294-4.779 8.28-2.124 5.346-3.18 10.888-2.893 16.663 0.137 2.744 0.513 5.442 1.281 8.088 1.135 3.914 2.91 7.481 5.613 10.554 2.508 2.853 5.578 4.79 9.3 5.654 0.357 0.083 0.733 0.148 1.057 0.309 1.891 0.94 2.783 2.609 3.063 4.588 0.277 1.954 0.378 3.933 0.551 5.902l0.507 5.906 0.733 7.927 0.446 4.671c0.111 1.312 0.247 2.629 0.252 3.944a3.35 3.35 0 0 1-3.525 3.415c-0.919-0.029-1.694-0.437-2.444-0.936l-17.951-11.908c-2.141-1.401-3.043-3.335-3.105-5.81-0.034-1.335-0.103-2.683-0.325-3.997a24.38 24.38 0 0 0-3.917-9.732c-2.243-3.292-4.949-6.028-8.933-7.127-3.105-0.858-5.717-0.026-7.702 2.306-1.537 1.806-2.283 3.983-2.555 6.326-0.068 0.583-0.16 1.162-0.24 1.744v2.108c0.04 0.132 0.099 0.261 0.119 0.395 0.187 1.218 0.28 2.458 0.565 3.653 0.806 3.376 2.147 6.515 4.212 9.343 1.961 2.683 4.265 4.917 7.423 6.115 2.48 0.941 4.898 0.833 7.146-0.662a7.29 7.29 0 0 0 2.441-2.668c0.511-0.964 1.312-1.458 2.383-1.263 0.584 0.105 1.176 0.381 1.676 0.712l11.154 7.481 7.499 5.138c1.282 0.909 1.94 2.261 1.982 3.818 0.037 1.385-0.605 2.348-1.944 2.989l-13.707 6.758c-0.304 0.149-0.665 0.227-1.005 0.247-1.091 0.064-1.915-0.506-2.682-1.196-1.148-1.03-2.241-2.134-3.47-3.057-2.138-1.605-4.502-2.647-7.277-2.474-1.468 0.092-2.661 0.677-3.591 1.786-1.064 1.269-1.332 2.822-1.351 4.4-0.028 2.421 0.691 4.699 1.799 6.811 1.956 3.728 4.689 6.775 8.399 8.849 1.823 1.018 3.784 1.606 5.904 1.33 2.267-0.296 3.659-1.705 4.27-3.708 0.585-1.914 0.417-3.881-0.137-5.793-0.267-0.926-0.663-1.815-0.961-2.733-0.423-1.297-0.142-2.615 1.286-3.075 0.174-0.056 0.329-0.172 0.497-0.25l13.454-6.264a3.57 3.57 0 0 1 1.611-0.317c2.192 0.121 4.383 2.158 4.615 4.329 0.309 2.887 0.531 5.783 0.793 8.675l0.435 4.666 0.523 6.399c0.102 1.235-1.081 2.133-2.339 2.022-1.392-0.123-2.758-0.071-4.09 0.396-3.225 1.13-4.48 3.598-4.302 6.527 0.194 3.192 1.805 5.841 3.728 8.271 1.884 2.382 4.206 4.313 6.812 5.867 2.004 1.197 4.098 2.22 6.425 2.657l2.825 0.508h1.116c0.153-0.044 0.304-0.098 0.459-0.13 0.805-0.167 1.635-0.253 2.409-0.51 1.594-0.529 2.812-1.532 3.472-3.123 0.874-2.104 0.618-4.221-0.077-6.28-0.838-2.48-2.338-4.588-4.107-6.489-2.227-2.392-4.849-4.261-7.749-5.774-1.737-0.907-2.765-2.36-2.843-4.393-0.03-0.76-0.089-1.522-0.152-2.282l-0.71-8.554-0.354-4.18c-0.107-1.355-0.239-2.709-0.282-4.066-0.046-1.422 0.858-2.541 2.23-2.872 1.436-0.345 2.741 0.025 3.939 0.811l4.364 2.943 19.154 12.884c0.95 0.644 1.573 1.6 1.881 2.75 0.274 1.028-0.134 1.896-0.486 2.801-1.063 2.729-0.867 5.467 0.102 8.156 0.732 2.027 1.77 3.92 3.264 5.493 1.399 1.475 2.794 2.985 4.376 4.248 3.086 2.461 6.599 4.189 10.313 5.533a41.34 41.34 0 0 0 10.892 2.355c2.894 0.225 5.805 0.115 8.684-0.456 4.074-0.809 7.786-2.319 10.672-5.42 2.317-2.488 3.212-5.493 2.793-8.842-0.362-2.904-1.714-5.407-3.518-7.662-3.392-4.238-7.754-7.221-12.672-9.365-6.164-2.688-12.62-3.892-19.361-3.274-3.143 0.289-6.165 1.012-9.006 2.447-2.195 1.109-4.433 0.949-6.478-0.301-2.846-1.739-5.6-3.632-8.379-5.483l-15.436-10.309c-1.358-0.901-2.266-2.059-2.594-3.673-0.307-1.511 0.494-3.297 1.826-3.928l7.499-3.532 18.53-8.688c2.61-1.196 5.219-1.027 7.604 0.721 0.497 0.364 0.939 0.805 1.397 1.221 2.635 2.392 5.687 4.071 9.006 5.299 3.186 1.177 6.476 1.915 9.859 2.124 2.072 0.128 4.167 0.154 6.235 2e-3 2.437-0.179 4.886-0.454 7.276-0.947 5.346-1.101 10.374-3.08 15.105-5.827 3.373-1.959 6.487-4.261 9.319-6.924 3.184-2.993 5.958-6.334 8.066-10.193 1.471-2.693 2.571-5.524 3.206-8.529 0.193-0.916 0.316-1.848 0.47-2.773v-4.464c-0.043-0.11-0.106-0.217-0.129-0.332-0.215-1.067-0.372-2.149-0.644-3.202-1.224-4.73-3.848-8.584-7.546-11.712-2.988-2.527-6.455-4.183-10.2-5.262-2.48-0.715-5.002-1.236-7.589-1.317-2.226-0.069-4.474-0.26-6.679-0.049-2.839 0.272-5.674 0.767-8.462 1.389-4.362 0.974-8.497 2.65-12.431 4.749-2.159 1.151-4.234 2.502-6.209 3.949-3.233 2.369-6.174 5.066-8.663 8.245-1.753 2.24-3.26 4.62-4.468 7.179-1.531 3.243-2.546 6.636-2.781 10.252-0.148 2.279-0.082 4.527 0.423 6.754 0.616 2.717-0.479 5.464-2.911 6.772-2.686 1.443-5.446 2.75-8.181 4.103l-17.488 8.61c-0.689 0.336-1.467 0.612-2.223 0.669-2.528 0.196-5.138-2.022-5.406-4.555-0.215-2.026-0.347-4.06-0.508-6.09l-0.412-5.424-0.727-8.426-0.462-5.474c-0.094-1.391-0.245-2.796-0.134-4.176 0.142-1.772 0.917-3.303 2.512-4.256 0.953-0.57 1.989-1.001 2.94-1.576 4.262-2.581 7.398-6.247 9.738-10.572 3.388-6.26 4.888-12.979 4.536-20.11-0.15-3.038-0.604-6.013-1.464-8.929-0.967-3.275-2.412-6.3-4.545-8.988-2.483-3.129-5.534-5.397-9.467-6.35-0.749-0.182-1.516-0.291-2.275-0.435" clip-path="url(#D)" fill="#1a5586"/></g><g class="B" transform="matrix(.113 0 0 .113 7.8425 107.62)"><path transform="matrix(1.3333 0 0 -1.3333 473.02 315.43)" d="m0 0h88.452v-26.671h-88.664c0.212-27.523 11.003-37.552 36.185-37.552h52.479v-26.671h-53.96c-18.41 0-32.588 1.495-47.4 13.443-15.66 12.589-23.278 32.644-23.278 60.382 0 54.194 22.643 79.371 71.524 79.371h53.114v-26.67h-52.479c-23.065 0-34.703-11.522-35.973-35.632" clip-path="url(#N)"/><path transform="matrix(1.3333 0 0 -1.3333 694.5 268.77)" d="m0 0c-16.717 0-24.547-5.975-24.547-20.056 0-11.094 6.772-16.642 20.104-16.642h42.322c33.857 0 48.457-11.308 48.457-43.314 0-32.217-17.14-45.873-53.113-45.873h-85.067v27.311h79.989c16.927 0 24.757 4.054 24.757 17.283 0 13.654-7.195 17.709-22.642 17.709h-37.666c-34.703 0-50.574 13.228-50.574 43.953 0 33.285 17.14 46.94 53.325 46.94h83.585v-27.311z" clip-path="url(#P)"/><path transform="matrix(1.3333 0 0 -1.3333 877.32 404.47)" d="m0 0h17.986c22.854 0 32.799 8.321 32.799 32.858 0 23.47-8.676 31.151-30.471 31.151h-20.314zm27.297 88.333c34.492 0 54.384-21.764 54.384-57.608 0-14.936-4.021-27.311-12.062-37.552-10.58-13.443-24.123-17.283-44.226-17.283h-25.393v-40.752h-29.414v153.2z" clip-path="url(#R)"/><path transform="matrix(1.3333 0 0 -1.3333 1114.9 406.46)" d="m0 0v23.256h-34.704c-12.485 0-18.198-2.56-18.198-12.588 0-9.388 5.29-10.668 16.082-10.668zm-15.66 89.826c30.473 0 45.92-14.295 45.92-42.033v-70.41h-79.142c-22.22 0-34.493 11.735-34.493 32.431 0 26.031 13.332 35.846 44.438 35.846h38.725v2.774c0 14.295-8.041 18.135-26.663 18.135h-49.093v23.257z" clip-path="url(#T)"/><path transform="matrix(1.3333 0 0 -1.3333 1263.8 286.7)" d="m0 0c33.011 0 46.554-11.309 46.554-41.18v-71.263h-29.413v67.636c0 15.577-2.752 20.057-19.469 20.057h-23.699v-87.693h-29.414v112.44z" clip-path="url(#V)"/><path transform="matrix(1.3333 0 0 -1.3333 0 605.33)" d="m1019.6 238.98h30.895v-112.44h-30.895zm0 40.751h30.895v-27.95h-30.895z" clip-path="url(#X)"/><path transform="matrix(1.3333 0 0 -1.3333 1418.5 286.7)" d="m0 0h34.068l23.912-33.925 24.547 33.925h33.858l-41.264-56.969 40.629-55.474h-34.281l-23.489 32.644-23.699-32.644h-34.281l41.264 56.115z" clip-path="url(#Z)"/></g></g></svg>
