<?xml version="1.0" encoding="UTF-8"?>
<!-- Created with Inkscape (http://www.inkscape.org/) -->
<svg width="51.936mm" height="10mm" version="1.1" viewBox="0 0 51.936 10" xmlns="http://www.w3.org/2000/svg">
 <g transform="translate(-89.694 -99.219)">
  <path d="m89.694 109.22h9.9998v-10h-9.9998v10" fill="#09090a"/>
  <path d="m98.046 104.22c0 1.8514-1.5006 3.3521-3.3521 3.3521-1.8514 0-3.352-1.5008-3.352-3.3521 0-1.8514 1.5006-3.3524 3.352-3.3524 1.8515 0 3.3521 1.501 3.3521 3.3524" fill="#fff"/>
  <g fill="#09090a">
   <path d="m95.404 103.63 0.50095-1.546c-0.93702-0.53154-2.1488-0.39872-2.9475 0.40008-0.95889 0.95898-0.95889 2.5139 0 3.4728 0.95914 0.95923 2.5141 0.95923 3.4732 0 0.76064-0.76078 0.91727-1.8963 0.47086-2.8123l-1.4975 0.48546"/>
   <path d="m103.48 102.86v0.81679h1.3938v1.0759h-1.3938v1.9187h-1.2704v-4.8874h2.8068v1.0761h-1.5363"/>
   <path d="m107.51 105.6h1.5234v1.0761h-2.7938v-4.8874h1.2705v3.8114"/>
   <path d="m111.24 102.86v0.81679h1.4326v1.0759h-1.4326v0.8426h1.5103v1.0761h-2.7808v-4.8874h2.7808v1.0761h-1.5103"/>
   <path d="m113.8 101.79h1.5624l0.74533 1.2641 0.74554-1.2641h1.5622l-1.5622 2.2753 1.8084 2.6124h-1.5297l-1.0242-1.5948-1.1215 1.5948h-1.5361l1.9123-2.6124-1.5624-2.2753"/>
   <path d="m124.33 104.14c0 1.5818-1.1345 2.6967-2.7031 2.6967-1.5688 0-2.7031-1.1149-2.7031-2.6967 0-1.4778 1.2965-2.5151 2.7031-2.5151s2.7031 1.0373 2.7031 2.5151m-4.0838 7e-3c0 0.84261 0.62242 1.4584 1.3808 1.4584s1.3808-0.61577 1.3808-1.4584c0-0.6743-0.62242-1.2901-1.3808-1.2901s-1.3808 0.61578-1.3808 1.2901"/>
   <path d="m125.43 101.79h1.9445c1.0502 0 1.7762 0.48627 1.7762 1.6076 0 1.154-0.62221 1.6594-1.7307 1.6594h-0.71951v1.6207h-1.2705zm1.2705 2.2431h0.2138c0.46026 0 0.91411 0 0.91411-0.59665 0-0.6158-0.42121-0.62215-0.91411-0.62215h-0.2138v1.2188"/>
   <path d="m132.11 106.68h-1.2704v-3.8114h-1.05v-1.0763h3.3705v1.0763h-1.05v3.8114"/>
   <path d="m135.54 106.68h-1.2704v-4.8877h1.2704v4.8877"/>
   <path d="m139.82 101.79-0.74533 1.2642-0.74554-1.2642h-1.5622l1.5622 2.2753-1.9123 2.6124h1.5363l1.1215-1.5946 1.0242 1.5946h1.5297l-1.8086-2.6124 1.5624-2.2753h-1.5624"/>
  </g>
 </g>
</svg>
