<?xml version="1.0" encoding="utf-8"?>
<!-- Generator: Adobe Illustrator 27.4.1, SVG Export Plug-In . SVG Version: 6.00 Build 0)  -->
<svg version="1.1" id="Vrstva_1" xmlns="http://www.w3.org/2000/svg" xmlns:xlink="http://www.w3.org/1999/xlink" x="0px" y="0px"
	 viewBox="0 0 841.9 595.3" style="enable-background:new 0 0 841.9 595.3;" xml:space="preserve">
<style type="text/css">
	.st0{fill:#020203;}
	.st1{fill:#EB5A30;}
</style>
<g id="VanCo_WiFiShop_logo_00000072260856600807137800000006807747882116988292_">
	<g>
		<path class="st0" d="M599.6,359.1c1.1,3.4,3.6,5.4,7.1,5.4c3.2,0,6-1.9,6-4.6c0-3.6-3.2-4.5-6.2-5.3c-3.7-1.1-7.9-1.5-7.9-6.8
			c0-4.2,3.7-6.2,8-6.2s7.1,2.3,7.9,6.3l-2,0.6c-0.6-2.9-2.8-4.8-5.9-4.8c-3.1,0-5.6,1.4-5.7,3.9c-0.2,3.4,2.9,4,6,4.8
			c3.7,0.9,8.2,2.3,8.2,7.3c-0.2,4.2-4,6.8-8.5,6.8s-7.9-2.5-9-7L599.6,359.1L599.6,359.1L599.6,359.1L599.6,359.1z"/>
		<path class="st0" d="M618.3,341.9h2.3v11.3c0.9-2.3,2.9-3.9,5.6-3.9c4.5,0,7.1,3.2,7.1,8.8v8.3H631V358c0-4.3-2-6.6-5.3-6.6
			c-3.1,0-4.9,2.6-4.9,7.1v7.9h-2.3L618.3,341.9L618.3,341.9L618.3,341.9L618.3,341.9z"/>
		<path class="st0" d="M644.9,349.2c4.6,0,8.2,3.6,8.2,8.7c0,5.1-3.2,8.7-8.2,8.7c-4.9,0-8.2-3.6-8.2-8.7
			C636.5,352.7,640.1,349.2,644.9,349.2L644.9,349.2L644.9,349.2z M638.8,358c0,3.9,2.5,6.5,6,6.5c3.6,0,5.9-2.6,5.9-6.5
			c0-3.9-2.5-6.5-5.9-6.5C641.5,351.5,638.8,354.1,638.8,358L638.8,358L638.8,358z"/>
		<path class="st0" d="M658.6,349.5v3.1c1.2-2.2,3.4-3.4,6.2-3.4c4.8,0,8.3,3.6,8.3,8.7c0,5.1-3.4,8.8-8.3,8.8
			c-2.6,0-4.8-1.2-6.2-3.4v10.8h-2.3v-24.6H658.6L658.6,349.5L658.6,349.5L658.6,349.5z M664.5,364.5c3.7,0,6.3-2.6,6.3-6.6
			c0-3.9-2.6-6.5-6.3-6.5c-3.7,0-5.9,2.6-5.9,6.5C658.6,361.7,661.1,364.5,664.5,364.5L664.5,364.5L664.5,364.5z"/>
		<polygon class="st0" points="675.9,363.9 678.6,363.9 678.6,366.3 675.9,366.3 675.9,363.9 		"/>
		<path class="st0" d="M683.5,358c0,3.6,2.9,6.6,6.3,6.6c2.6,0,4.6-1.2,5.9-3.7l1.9,0.6c-1.5,3.4-4.5,5.1-7.9,5.1
			c-4.6,0-8.5-3.9-8.5-8.7c0-4.9,3.9-8.7,8.3-8.7c3.9,0,6.5,2.2,7.6,6l-2.2,0.3c-0.9-2.9-2.6-4.3-5.4-4.3
			C686.3,351.3,683.5,354,683.5,358L683.5,358L683.5,358L683.5,358z"/>
		<polygon class="st0" points="700.7,349.5 713.3,349.5 713.3,351.2 703.6,364.2 713.6,364.2 713.6,366.3 700.5,366.3 700.5,364.6 
			710.4,351.7 700.7,351.7 700.7,349.5 		"/>
		<polygon class="st0" points="347.1,341.8 362.1,341.8 362.1,343.9 349.4,343.9 349.4,353 361.4,353 361.4,355.2 349.4,355.2 
			349.4,364.3 362.1,364.3 362.1,366.5 347.1,366.5 347.1,341.8 347.1,341.8 		"/>
		<polygon class="st0" points="364.7,352.3 377.5,352.3 377.5,354.6 364.7,354.6 364.7,352.3 		"/>
		<path class="st0" d="M381.5,359.1c1.1,3.4,3.6,5.4,7.1,5.4c3.2,0,6-1.9,6.2-4.6c0-3.6-3.2-4.5-6.2-5.3c-3.9-1.1-8-1.5-8-6.8
			c0-4.2,3.7-6.2,8-6.2c4.5,0,7.3,2.5,8,6.3l-2,0.6c-0.6-2.9-2.8-4.8-5.9-4.8c-3.1,0-5.7,1.4-5.7,3.9c-0.2,3.6,2.9,4,6,4.8
			c3.9,0.9,8.2,2.5,8.2,7.4c-0.2,4.2-4,7-8.5,7s-7.9-2.6-9.1-7L381.5,359.1L381.5,359.1L381.5,359.1L381.5,359.1z"/>
		<polygon class="st0" points="406.6,343.9 398.8,343.9 398.8,341.8 416.6,341.8 416.6,343.9 408.9,343.9 408.9,366.5 406.6,366.5 
			406.6,343.9 406.6,343.9 		"/>
		<path class="st0" d="M429.8,341.5c6.8,0,11.6,5.4,11.6,12.7c0,7.3-4.8,12.7-11.6,12.7c-6.8,0-11.7-5.4-11.7-12.7
			C417.9,346.9,422.8,341.5,429.8,341.5L429.8,341.5L429.8,341.5z M420.2,354.1c0,6,3.9,10.4,9.4,10.4c5.6,0,9.4-4.3,9.4-10.4
			c0-6-3.9-10.4-9.4-10.4C424.2,343.8,420.2,348.1,420.2,354.1L420.2,354.1L420.2,354.1z"/>
		<path class="st0" d="M445.2,341.8h9c4.5,0,7.6,3.1,7.6,7.3c0,3.7-2.5,6.6-6,7.3l7,10.2h-2.8l-6.6-10h-5.7v10h-2.3V341.8
			L445.2,341.8L445.2,341.8L445.2,341.8z M447.5,343.9v10.4h6.6c3.1,0,5.3-2.3,5.3-5.3c0-3.1-2.2-5.3-5.3-5.3h-6.6V343.9
			L447.5,343.9z"/>
		<polygon class="st0" points="466.1,341.8 481.1,341.8 481.1,343.9 468.4,343.9 468.4,353 480.4,353 480.4,355.2 468.4,355.2 
			468.4,364.3 481.1,364.3 481.1,366.5 466.1,366.5 466.1,341.8 466.1,341.8 		"/>
		<polygon class="st0" points="497.4,334.2 504.2,358.5 510.9,334.2 518,334.2 525,358.5 531.6,334.2 539.2,334.2 528.4,366.3 
			520.9,366.3 514.4,343.5 507.8,366.3 500.2,366.3 489.6,334.2 497.4,334.2 		"/>
		<path class="st0" d="M549.2,366.3h-7.1v-24.7h7.1V366.3L549.2,366.3L549.2,366.3z M549.2,334.5c0,2-1.4,3.6-3.4,3.6
			c-2,0-3.4-1.5-3.4-3.6c0-2,1.4-3.6,3.4-3.6C547.8,330.9,549.2,332.5,549.2,334.5"/>
		<polygon class="st0" points="579.5,334.2 579.5,340.2 563.6,340.2 563.6,348.1 578.1,348.1 578.1,354.1 563.6,354.1 563.6,366.3 
			556.3,366.3 556.3,334.2 579.5,334.2 		"/>
		<path class="st0" d="M590.6,366.3h-7.1v-24.7h7.1V366.3L590.6,366.3L590.6,366.3z M590.6,334.5c0,2-1.4,3.6-3.4,3.6
			s-3.4-1.5-3.4-3.6c0-2,1.4-3.6,3.4-3.6C589.2,331.1,590.6,332.5,590.6,334.5"/>
		<polygon class="st0" points="335,221.5 359.1,288.1 383.2,221.5 403.8,221.5 368.9,309.8 348.3,309.8 313.7,221.5 335,221.5 		"/>
		<path class="st0" d="M445.5,309.8v-7.9c-4.5,5.7-11.9,8.8-21.3,8.8c-14.5,0-23.3-8.8-23.3-21.2c0-12.4,9.3-20.2,25.8-20.4h18.7
			v-1.2c0-7.1-4.8-11.3-14.1-11.3c-6,0-13.1,2-20.1,5.9l-6-13.3c10-5.1,18.7-7.9,30.6-7.9c18.1,0,28.6,9.1,28.7,24.3l0.2,44.2H445.5
			L445.5,309.8L445.5,309.8L445.5,309.8z M445.4,286.6v-6h-15.3c-7.4,0-11.1,2.3-11.1,7.7c0,5.4,4,8.5,10.7,8.5
			C437.9,296.8,444.3,292.3,445.4,286.6"/>
		<path class="st0" d="M549.1,267.1v42.7h-19.5v-36.9c0-8.5-5.1-13.9-13.3-13.9c-9.7,0.2-15.5,7.4-15.5,17.5v33.4h-19.5v-67.8h19.5
			v11.9c4.8-8.5,12.8-12.5,23.5-12.7C539.3,241.2,549.1,251.4,549.1,267.1"/>
		<path class="st0" d="M608.3,309.8c-25.2,0-45.6-19.9-45.6-44.4c0-24.4,20.4-44.2,45.6-44.2c11.4,0,22.6,4.2,31.1,11.9l0.6,0.5
			l-4.2,5.3l-0.6-0.6c-7.1-6.6-16.8-10.5-26.7-10.5c-21.5,0-38.9,16.8-38.9,37.6c0,20.7,17.5,37.9,38.9,37.9
			c9.9,0,19.3-3.7,26.7-10.4l0.6-0.5l4.3,4.8l-0.6,0.5C631,305.3,619.5,309.8,608.3,309.8"/>
		<g>
			<path class="st0" d="M680.4,309.8c-19,0-32.8-14.1-32.8-33.4c0-19.3,13.8-33.2,32.8-33.2c19,0,32.8,13.9,32.8,33.2
				C713.2,295.7,699.4,309.8,680.4,309.8 M680.4,249.8c-15.3,0-26,11-26,26.6c0,15.6,10.7,26.9,26,26.9s26-11.1,26-26.9
				C706.5,260.6,695.7,249.8,680.4,249.8"/>
			<path class="st1" d="M272.6,241.2L204,310.5l-18.4-18.4l-40.3,40.6c-5.6-10.5-8.8-22.6-8.8-35.2c0-41.4,33.7-75.1,75.1-75.1
				c15.5,0,29.8,4.6,41.7,12.7l5.9-5.9c-13.4-9.4-30-15-47.6-15c-45.9,0-83.3,37.4-83.3,83.3c0,18.1,5.9,34.9,15.6,48.5l41.7-42.3
				l18.4,18.4l68.5-68.5c9,12.4,14.2,27.5,14.2,43.9c0,41.4-33.7,75.1-75.1,75.1c-19.2,0-36.6-7.3-49.9-19l-5.7,5.9
				c14.8,13.3,34.3,21.5,55.6,21.5c45.9,0,83.3-37.4,83.3-83.3C294.8,275.9,286.2,256,272.6,241.2"/>
		</g>
	</g>
</g>
</svg>
