<svg width="180" height="30" viewBox="0 0 180 30" fill="none" xmlns="http://www.w3.org/2000/svg">
<path d="M26.206 25.2363C27.4826 23.6406 28.3691 21.7375 28.7473 19.6571C30.0949 17.6712 30.8986 15.2481 30.8986 12.6712C30.8986 12.2575 30.8868 11.8438 30.8395 11.4301C31.2651 12.6712 31.5251 13.9951 31.5251 15.3781C31.5251 19.4916 29.4093 23.1205 26.2178 25.2481L26.206 25.2363ZM23.0618 26.6784C21.9979 26.9976 20.8514 27.1749 19.6693 27.1749C19.0665 27.1749 18.4755 27.1158 17.9081 27.033C19.1965 26.4657 20.3549 25.6855 21.3715 24.7399C23.5228 24.2198 25.4377 23.1323 26.9979 21.6547C26.1705 23.676 24.7875 25.4018 23.0381 26.6784H23.0499H23.0618ZM16.336 28.877C14.8703 28.877 13.4637 28.5933 12.1753 28.0851C12.3998 28.0851 12.6008 28.1205 12.8254 28.1205C14.3029 28.1205 15.7214 27.8486 17.057 27.3758C17.8963 27.565 18.7946 27.6595 19.6812 27.6595C20.4258 27.6595 21.1587 27.5768 21.8561 27.4586C20.2131 28.3687 18.3218 28.877 16.336 28.877ZM7.45895 24.728C9.03105 25.4727 10.7805 25.8864 12.6481 25.8864C12.849 25.8864 13.05 25.8746 13.2509 25.851C13.8419 26.2174 14.4566 26.5366 15.1067 26.7848C14.3738 26.9266 13.6173 27.0094 12.8136 27.0094C11.5724 27.0094 10.3786 26.8084 9.25564 26.442C8.58188 25.9337 7.97904 25.3427 7.44713 24.6926V24.728H7.45895ZM4.82302 17.3757C4.82302 15.5908 5.23673 13.9123 5.96959 12.3993V12.6712C5.96959 15.3308 6.80883 17.7895 8.22727 19.8226C9.13743 22.1748 10.745 24.1843 12.8017 25.5791H12.6717C10.6504 25.5791 8.74736 25.0708 7.06888 24.1843C5.67408 22.2812 4.82302 19.9171 4.82302 17.3757ZM2.28165 20.0944C3.06179 21.3474 4.06652 22.4467 5.22491 23.3332C5.53224 23.9006 5.89867 24.4325 6.27692 24.9408C4.53933 23.7351 3.14453 22.0448 2.28165 20.0708V20.0944ZM1.3242 15.5317C1.3242 10.579 4.45659 6.35909 8.84193 4.72787C7.64807 6.15814 6.78519 7.86029 6.3242 9.71609C4.68117 11.8438 3.71191 14.5034 3.71191 17.3757C3.71191 19.267 4.13744 21.0637 4.89394 22.6831C3.49914 21.4774 2.36439 19.9526 1.65517 18.2268C1.45423 17.3521 1.3242 16.4419 1.3242 15.5081V15.5317ZM12.4235 1.7373C11.7024 2.13919 11.0523 2.57655 10.4377 3.10847C6.11143 3.94772 2.56534 7.00921 1.04052 11.04C2.21073 5.79171 6.85611 1.84368 12.4235 1.74912V1.7373ZM14.1138 1.78458C15.6031 1.96189 17.0098 2.42288 18.2745 3.10847C17.719 3.16757 17.1634 3.28578 16.6315 3.42762C15.4377 3.04937 14.1611 2.8366 12.849 2.8366C12.5771 2.8366 12.3053 2.87206 12.0334 2.88388C12.6835 2.45835 13.3809 2.09191 14.1138 1.80822H14.102L14.1138 1.78458ZM18.44 0.909869C22.7308 0.909869 26.466 3.25032 28.5109 6.70188C26.2651 4.40872 23.1563 2.97845 19.7048 2.97845C19.4211 2.97845 19.1138 2.99027 18.8301 3.02573C17.589 2.29286 16.206 1.78458 14.7284 1.53635C15.8868 1.13446 17.1398 0.921689 18.4282 0.921689H18.44V0.909869ZM25.4849 15.4254C25.4849 13.7232 25.154 12.1156 24.5275 10.6381C24.3502 9.8934 24.102 9.19599 23.7828 8.51041C26.2769 10.6263 27.8726 13.7705 27.8726 17.3048C27.8726 18.1795 27.7663 19.0188 27.5889 19.8462C26.2887 21.5011 24.5393 22.7777 22.5535 23.5342C24.3856 21.3356 25.4968 18.5105 25.4968 15.4372L25.4849 15.4254ZM18.5937 24.2316C21.0878 22.8368 23.0618 20.5909 24.0901 17.884C23.5464 20.319 22.2343 22.4585 20.414 24.0543C19.823 24.1488 19.2202 24.2079 18.6055 24.2316H18.5937ZM17.0334 24.9526C17.4944 24.9999 17.9554 25.0354 18.4282 25.0354C18.6882 25.0354 18.9365 25.0236 19.1965 24.9999C18.2154 25.65 17.1161 26.1583 15.9341 26.4775C15.2958 26.2529 14.6575 26.0047 14.0783 25.6855C15.1067 25.5555 16.0996 25.3191 17.0216 24.9526H17.0334ZM16.3833 24.8581C15.5086 25.1418 14.5866 25.3309 13.6173 25.4136C11.9152 24.3971 10.4968 22.9668 9.48022 21.2647C11.2887 23.1205 13.6883 24.4325 16.3715 24.8581H16.3833ZM22.9317 7.813C23.0263 7.87211 23.1327 7.95485 23.2391 8.03759C23.3691 8.274 23.4755 8.51041 23.5937 8.75864C23.3927 8.43949 23.18 8.12033 22.9436 7.82482L22.9317 7.813ZM17.4471 3.62857C17.9554 3.53401 18.4637 3.4749 18.9838 3.43944C20.0358 4.11321 20.9696 4.917 21.7615 5.85081C21.336 5.64986 20.8868 5.44892 20.4258 5.29525C19.5157 4.60967 18.5228 4.04228 17.4353 3.60493L17.4471 3.62857ZM11.2887 6.95011C12.8136 6.20542 14.5275 5.76807 16.3478 5.76807C17.589 5.76807 18.7828 5.96902 19.8939 6.33545C22.6126 8.45131 24.362 11.7374 24.362 15.4372C24.362 15.6263 24.3502 15.8036 24.3265 15.9927C23.5819 19.6334 21.1587 22.6595 17.9199 24.2671C13.771 24.0897 10.1776 21.7375 8.25091 18.3332C7.99086 17.3639 7.8372 16.3474 7.8372 15.2953C7.8372 12.0565 9.16107 9.08961 11.2887 6.95011ZM15.5086 4.21959C16.0169 4.34962 16.5251 4.49146 16.9979 4.68059C16.7734 4.68059 16.5724 4.64513 16.3478 4.64513C15.5677 4.64513 14.7994 4.72787 14.0547 4.86971C14.5157 4.60966 15.0121 4.40872 15.4968 4.21959H15.5086ZM12.6126 5.22433C10.7214 5.81535 9.01923 6.84373 7.62443 8.17944C8.23909 6.6546 9.18472 5.30707 10.3431 4.18413C11.1587 4.00682 11.9861 3.90044 12.8372 3.90044C13.4518 3.90044 14.0665 3.95954 14.6457 4.0541C13.9247 4.37326 13.2509 4.77515 12.6126 5.21251V5.22433ZM7.42349 16.5365C6.99796 15.3072 6.73791 13.9951 6.73791 12.6239C6.73791 11.9738 6.79701 11.3355 6.91521 10.7208C7.75446 9.52697 8.80646 8.49859 10.0358 7.68298C8.36911 9.78702 7.36439 12.4348 7.36439 15.319C7.36439 15.7327 7.37621 16.1346 7.42349 16.5247V16.5365ZM30.1185 12.6594C30.1185 14.4561 29.7048 16.1582 28.9719 17.6712V17.3521C28.9719 12.5766 26.3124 8.42767 22.3998 6.26453C21.5842 5.20069 20.615 4.25505 19.5157 3.49854H19.6693C23.6646 3.49854 27.1752 5.48438 29.3265 8.51041C29.823 9.79884 30.1067 11.1936 30.1067 12.6476L30.1185 12.6594ZM30.4731 9.42058C29.0192 4.08957 24.1847 0.177002 18.4282 0.177002C16.5015 0.177002 14.6812 0.637999 13.0381 1.41815C12.9081 1.41815 12.7781 1.40633 12.6599 1.40633C6.12325 1.39451 0.780469 6.54822 0.4495 13.0022C0.295836 13.8178 0.189453 14.6452 0.189453 15.4963C0.189453 21.0282 3.77101 25.7328 8.74736 27.4349C10.8632 29.0425 13.4873 30 16.3478 30C19.7994 30 22.9317 28.6051 25.2012 26.3593C29.2202 24.3262 32.0097 20.1535 32.0097 15.3544C32.0097 13.1913 31.4424 11.1582 30.4495 9.3733H30.4613L30.4731 9.42058Z" fill="white"/>
<path d="M17.6714 0C17.3522 0 17.104 0.26005 17.104 0.567381C17.104 0.874712 17.364 1.13476 17.6714 1.13476C17.9787 1.13476 18.2387 0.874712 18.2387 0.567381C18.2387 0.26005 17.9787 0 17.6714 0ZM24.409 25.2366C23.8534 25.2366 23.4042 25.6858 23.4042 26.2414C23.4042 26.7969 23.8534 27.2461 24.409 27.2461C24.9645 27.2461 25.4137 26.7969 25.4137 26.2414C25.4137 25.6858 24.9645 25.2366 24.409 25.2366ZM0.827422 16.0285C0.36643 16.0285 0 16.3949 0 16.8559C0 17.3169 0.36643 17.6834 0.827422 17.6834C1.28841 17.6834 1.65484 17.3169 1.65484 16.8559C1.65484 16.3949 1.28841 16.0285 0.827422 16.0285ZM5.75649 4.70453C6.26477 4.70453 6.67848 4.29082 6.67848 3.78254C6.67848 3.27426 6.26477 2.86055 5.75649 2.86055C5.24822 2.86055 4.83451 3.27426 4.83451 3.78254C4.83451 4.29082 5.24822 4.70453 5.75649 4.70453ZM31.6784 13.4162C31.2766 13.4162 30.981 13.7353 30.981 14.1136C30.981 14.4919 31.3002 14.811 31.6784 14.811C32.0567 14.811 32.3758 14.4919 32.3758 14.1136C32.3758 13.7353 32.0567 13.4162 31.6784 13.4162ZM29.9763 15.3547C29.4562 15.3547 29.0189 15.7803 29.0189 16.3122C29.0189 16.8441 29.4444 17.2697 29.9763 17.2697C30.5082 17.2697 30.9338 16.8441 30.9338 16.3122C30.9338 15.7803 30.5082 15.3547 29.9763 15.3547ZM19.6217 22.7307C19.3026 22.7307 19.0544 22.9907 19.0544 23.2981C19.0544 23.6054 19.3144 23.8655 19.6217 23.8655C19.9291 23.8655 20.1891 23.6054 20.1891 23.2981C20.1891 22.9907 19.9291 22.7307 19.6217 22.7307ZM6.20567 23.0026C5.79195 23.0026 5.43735 23.3335 5.43735 23.7709C5.43735 24.2083 5.76831 24.5392 6.20567 24.5392C6.64302 24.5392 6.97399 24.2083 6.97399 23.7709C6.97399 23.3335 6.64302 23.0026 6.20567 23.0026ZM4.99999 14.3382C4.45626 14.3382 4.01891 13.889 4.01891 13.3571C4.01891 12.8252 4.46808 12.376 4.99999 12.376C5.53191 12.376 5.98108 12.8252 5.98108 13.3571C5.98108 13.889 5.53191 14.3382 4.99999 14.3382Z" fill="#2EA196"/>
<path d="M117.021 26.2892C117.021 27.6367 115.969 28.6887 114.692 28.6887C113.415 28.6887 112.328 27.6367 112.328 26.2892C112.328 24.9417 113.415 23.9606 114.656 23.9606C115.98 23.9606 117.021 25.0126 117.021 26.2892Z" fill="#2EA196"/>
<path d="M109.811 7.91923C110.898 7.91923 111.643 8.12018 112.825 8.7703L111.229 11.82C110.378 11.3117 109.941 11.1462 109.232 11.1462C107.943 11.1462 106.655 11.8554 106.087 12.9784C105.544 13.924 105.307 15.3425 105.307 17.7538V28.4395H104.161C102.908 28.4395 101.927 27.4229 101.927 26.2054V10.6261C101.927 9.37314 102.943 8.39205 104.161 8.39205H105.307V10.5197C107.069 8.42751 107.943 7.88377 109.811 7.88377V7.91923ZM82.2459 16.1344C82.7187 13.1911 85.1892 11.028 88.0615 11.028C90.9338 11.028 93.2743 13.0257 93.8771 16.1344H82.2341H82.2459ZM88.026 7.97833C82.3405 7.97833 78.4516 12.2455 78.4516 18.4276C78.4516 24.6097 82.4468 28.7823 88.1915 28.7823C92.1868 28.7823 95.0946 27.0211 97.2932 23.1676L96.2057 22.5529C95.2246 22.0092 94.0071 22.2811 93.3334 23.1676C91.8795 24.9998 90.461 25.709 88.357 25.709C84.7754 25.709 82.2695 23.073 82.0686 19.0423H97.5296V18.4631C97.5296 12.1746 93.8062 8.01379 88.097 8.01379H88.026V7.97833ZM125.508 1.21704H126.655V28.4159H125.508C124.255 28.4159 123.274 27.3993 123.274 26.1818V3.48656C123.274 2.2336 124.291 1.2525 125.508 1.2525V1.21704ZM179.669 28.144H176.56C175.686 28.144 174.87 27.7776 174.291 27.1274L167.222 19.1486L166.371 19.9997V28.3922H165.225C163.972 28.3922 162.99 27.3757 162.99 26.1582V3.4511C162.99 2.19814 164.007 1.21704 165.225 1.21704H166.371V15.6616L172.66 9.2313C173.203 8.6521 173.983 8.35658 174.752 8.35658H178.038L169.574 16.8082L179.657 28.1795V28.144H179.669ZM134.574 8.32112H135.721V28.3449H134.574C133.321 28.3449 132.34 27.3284 132.34 26.1109V10.5552C132.34 9.30222 133.357 8.32112 134.574 8.32112ZM41.3712 8.39205H42.5178V28.4159H41.3712C40.1183 28.4159 39.1372 27.3993 39.1372 26.1818V10.6261C39.1372 9.37314 40.1538 8.39205 41.3712 8.39205ZM73.3688 8.39205H76.8913V11.5363H73.3688V28.4159H72.2223C70.9693 28.4159 69.9882 27.3993 69.9882 26.1818V11.5363H67.9197V8.39205H69.9882V3.48656C69.9882 2.2336 71.0048 1.2525 72.2223 1.2525H73.3688V8.39205ZM156.182 10.6261C156.962 11.8791 157.269 13.333 157.269 15.898V28.3804H156.123C154.905 28.3804 153.889 27.3993 153.889 26.1463V16.4418C153.889 14.3495 153.747 13.3921 153.215 12.5883C152.612 11.5363 151.324 10.9334 149.693 10.9334C146.277 10.9334 144.787 13.132 144.787 18.2739V28.3922H143.641C142.388 28.3922 141.407 27.3757 141.407 26.1582V10.5906C141.407 9.33768 142.423 8.35658 143.641 8.35658H144.787V10.7561C146.513 8.66392 148.038 7.88377 150.508 7.88377C152.979 7.88377 155.071 8.93579 156.194 10.5906V10.6261H156.182ZM62.9788 10.6261C63.7589 11.8791 64.0663 13.333 64.0663 15.898V28.3804H62.9551C61.7022 28.3804 60.6502 27.3638 60.6502 26.1109V16.4772C60.6502 14.385 60.5202 13.4276 59.9764 12.6238C59.3618 11.5717 58.0852 10.9689 56.454 10.9689C53.0379 10.9689 51.5485 13.1675 51.5485 18.3094V28.4277H50.402C49.149 28.4277 48.1679 27.4111 48.1679 26.1936V10.6261C48.1679 9.37314 49.1845 8.39205 50.402 8.39205H51.5485V10.7916C53.2743 8.69938 54.7991 7.91923 57.2696 7.91923C59.74 7.91923 61.8322 8.97125 62.9551 10.6261H62.9906H62.9788Z" fill="white"/>
</svg>
