<?xml version="1.0" encoding="UTF-8" standalone="no"?>
<!DOCTYPE svg PUBLIC "-//W3C//DTD SVG 1.1//EN" "http://www.w3.org/Graphics/SVG/1.1/DTD/svg11.dtd">
<svg width="100%" height="100%" viewBox="0 0 759 90" version="1.1" xmlns="http://www.w3.org/2000/svg" xmlns:xlink="http://www.w3.org/1999/xlink" xml:space="preserve" xmlns:serif="http://www.serif.com/" style="fill-rule:evenodd;clip-rule:evenodd;stroke-linejoin:round;stroke-miterlimit:2;">
    <g transform="matrix(2,0,0,2,149.922,48.3506)">
        <path d="M0,-11.127L0,5.546L-5.133,5.546L-5.133,-11.127L-15.43,-11.127L-15.43,-16.673L10.297,-16.673L10.297,-11.127L0,-11.127Z" style="fill:rgb(0,90,120);fill-rule:nonzero;"/>
    </g>
    <g transform="matrix(2,0,0,2,-1113.47,-1044)">
        <path d="M645.988,546.176L671.221,546.176L671.221,551.722L645.988,551.722L645.988,546.176ZM645.988,537.858L671.221,537.858L671.221,543.403L645.988,543.403L645.988,537.858ZM645.988,529.504L671.221,529.504L671.221,535.05L645.988,535.05L645.988,529.504Z" style="fill:rgb(0,90,120);fill-rule:nonzero;"/>
    </g>
    <g transform="matrix(2,0,0,2,287.365,59.4412)">
        <path d="M0,-22.218L0,-16.672L-19.575,-16.672L-19.575,-5.546L0,-5.546L0,0L-24.707,0L-24.707,-22.218L0,-22.218Z" style="fill:rgb(0,90,120);fill-rule:nonzero;"/>
    </g>
    <g transform="matrix(2,0,0,2,307.66,48.3506)">
        <path d="M0,-11.127L0,5.546L-5.132,5.546L-5.132,-16.673L19.575,-16.673L19.575,5.546L14.41,5.546L14.41,-11.127L0,-11.127Z" style="fill:rgb(0,90,120);fill-rule:nonzero;"/>
    </g>
    <g transform="matrix(2,0,0,2,-1113.47,-1044)">
        <path d="M754.63,535.049L740.364,535.049L740.364,546.176L754.63,546.176L754.63,535.049ZM735.232,529.504L759.794,529.504L759.794,551.722L735.232,551.722L735.232,529.504Z" style="fill:rgb(0,90,120);fill-rule:nonzero;"/>
    </g>
    <g transform="matrix(2,0,0,2,465.699,59.4412)">
        <path d="M0,-22.218L0,-16.672L-19.575,-16.672L-19.575,-5.546L0,-5.546L0,0L-24.707,0L-24.707,-22.218L0,-22.218Z" style="fill:rgb(0,90,120);fill-rule:nonzero;"/>
    </g>
    <g transform="matrix(2,0,0,2,485.992,48.3506)">
        <path d="M0,-11.127L0,5.546L-5.132,5.546L-5.132,-16.673L19.576,-16.673L19.576,-11.127L0,-11.127Z" style="fill:rgb(0,90,120);fill-rule:nonzero;"/>
    </g>
    <g transform="matrix(2,0,0,2,532.291,15.0058)">
        <path d="M0,22.218L-5.856,22.218L4.672,0L9.869,0L20.431,22.218L14.574,22.218L7.304,6.718L0,22.218Z" style="fill:rgb(0,90,120);fill-rule:nonzero;"/>
    </g>
    <g transform="matrix(2,0,0,2,599.537,48.3506)">
        <path d="M0,-11.127L0,5.546L-4.92,5.546L-4.92,-11.127L-14.79,-11.127L-14.79,-16.673L9.871,-16.673L9.871,-11.127L0,-11.127Z" style="fill:rgb(0,90,120);fill-rule:nonzero;"/>
    </g>
    <g transform="matrix(2,0,0,2,-1113.47,-1044)">
        <rect x="871.63" y="529.504" width="5.165" height="22.218" style="fill:rgb(0,90,120);"/>
    </g>
    <g transform="matrix(2,0,0,2,698.35,59.4412)">
        <path d="M0,-22.218L0,-16.672L-19.575,-16.672L-19.575,-5.546L0,-5.546L0,0L-24.707,0L-24.707,-22.218L0,-22.218Z" style="fill:rgb(0,90,120);fill-rule:nonzero;"/>
    </g>
    <g transform="matrix(2,0,0,2,717.227,15.0058)">
        <path d="M0,22.218L-5.855,22.218L4.672,0L9.87,0L20.432,22.218L14.575,22.218L7.304,6.718L0,22.218Z" style="fill:rgb(0,90,120);fill-rule:nonzero;"/>
    </g>
    <g transform="matrix(-2,0,0,2,1143.36,-954.982)">
        <rect x="556.734" y="514.644" width="14.948" height="7.428" style="fill:rgb(0,90,120);"/>
    </g>
    <g transform="matrix(-2,0,0,2,1202.75,-1044)">
        <rect x="556.734" y="529.503" width="44.641" height="22.219" style="fill:rgb(0,90,120);"/>
    </g>
    <g transform="matrix(2,0,0,2,-1113.47,-954.978)">
        <rect x="586.544" y="514.643" width="14.831" height="7.428" style="fill:rgb(0,90,120);"/>
    </g>
    <g transform="matrix(2,0,0,2,552.422,9.91)">
        <path d="M0,-4.955L-2.778,0L-5.557,-4.955L0,-4.955Z" style="fill:rgb(0,90,120);fill-rule:nonzero;"/>
    </g>
</svg>
