<?xml version="1.0" encoding="UTF-8"?>
<!-- Created with Inkscape (http://www.inkscape.org/) -->
<svg width="41.169mm" height="10mm" version="1.1" viewBox="0 0 41.169 10" xmlns="http://www.w3.org/2000/svg"><defs><linearGradient id="linearGradient12" x2="1" gradientTransform="matrix(1233.8 1233.8 1233.8 -1233.8 219.15 30.74)" gradientUnits="userSpaceOnUse"><stop stop-color="#253169" offset="0"/><stop stop-color="#253169" offset=".24206"/><stop stop-color="#f2581a" offset=".4872"/><stop stop-color="#a9a8a8" offset="1"/></linearGradient><clipPath id="clipPath12"><path transform="translate(0,2.5e-5)" d="m1613 284-373.73-215.77-344.66 198.99 374.2 216.05v430.98l344.19-198.72zm-1554 0-0.0039 431.54 344.19 198.72v-430.98l374.2-216.05-344.66-198.99zm403.26 1130.6 373.73 215.78 373.72-215.78 0.01-397.43-373.73 215.77-373.73-215.77zm403.27-699.02 344.19 198.72v-396.88l-344.19-198.72zm-403.27 198.72 344.19-198.72 4e-3 -396.88-344.19 198.72zm373.73-146.99-344.19 198.71 344.19 198.72 344.18-198.72zm432.8 215.21v466.21l-432.8 249.87-432.8-249.87 4e-3 -465.66v-0.554l-403.26-232.82v-499.77l432.8-249.88 403.26 232.83 403.26-232.83 432.8 249.88v499.77z"/></clipPath></defs><g transform="matrix(2.0585 0 0 2.0585 8.9952e-7 -5.2923)"><g fill="#253169"><path d="m6.4525 3.7303h-0.35691v0.60771h0.35691c0.20578 0 0.3344-0.11898 0.3344-0.30549 0-0.21222-0.14149-0.30223-0.3344-0.30223zm0.36014 1.8424-0.45341-0.81028h-0.26044v0.81028h-0.5756v-2.2926h1.0032c0.22829 0 0.40519 0.048221 0.54985 0.15436 0.17684 0.12862 0.27011 0.34084 0.27011 0.56916 0 0.27975-0.13505 0.55306-0.43411 0.67524l0.52735 0.89389h-0.62699"/><path d="m7.6996 5.5727v-2.2926h0.5756v2.2926h-0.5756"/><path d="m9.6094 3.7303h-0.36975v0.60771h0.36975c0.19617 0 0.33443-0.10291 0.33443-0.30869 0-0.19938-0.12865-0.29902-0.33443-0.29902zm0.10614 1.0482h-0.47589v0.7942h-0.57239v-2.2926h1.0354c0.50801 0 0.80389 0.31192 0.80389 0.73636 0 0.37622-0.23155 0.76209-0.79102 0.76209"/><path d="m10.796 5.5727v-2.2926h1.6882v0.46625h-1.1158v0.43731h0.93894v0.46304h-0.93894v0.45661h1.1222v0.46944h-1.6946"/><path d="m15.084 5.5727-0.89713-1.3473h-0.0064v1.3473h-0.53061v-2.2926h0.55632l0.87139 1.2959h0.0064v-1.2959h0.53375v2.2926h-0.53375"/><path d="m16.926 5.6113c-0.50481 0-0.97752-0.25402-0.97752-0.82638v-0.69777c0-0.56269 0.45662-0.84567 0.96142-0.84567 0.44698 0 0.93254 0.22509 0.93254 0.75566v0.14592h-0.54022v-0.091294c0-0.23793-0.20261-0.34084-0.37942-0.34084-0.20261 0-0.39873 0.10614-0.39873 0.36661v0.69451c0 0.23475 0.17043 0.3698 0.40513 0.3698 0.17687 0 0.37301-0.099677 0.37301-0.34084v-0.09541h0.54022v0.15327c0 0.52735-0.47269 0.75243-0.91643 0.75243"/><path d="m19.084 5.6113c-0.50484 0-0.97752-0.25402-0.97752-0.82638v-0.69777c0-0.56269 0.45662-0.84567 0.96142-0.84567 0.44695 0 0.93248 0.22509 0.93248 0.75566v0.14592h-0.54019v-0.091265c0-0.23796-0.20258-0.34087-0.37942-0.34087-0.20258 0-0.3987 0.10614-0.3987 0.36661v0.69451c0 0.23475 0.17043 0.3698 0.40513 0.3698 0.17687 0 0.37299-0.099677 0.37299-0.34084v-0.08701h0.54019v0.14487c0 0.52735-0.47266 0.75243-0.91638 0.75243"/></g><path transform="matrix(.0028601 0 0 -.0028601 -8.4984e-7 7.429)" d="m1613 284-373.73-215.77-344.66 198.99 374.2 216.05v430.98l344.19-198.72zm-1554 0-0.0039 431.54 344.19 198.72v-430.98l374.2-216.05-344.66-198.99zm403.26 1130.6 373.73 215.78 373.72-215.78 0.01-397.43-373.73 215.77-373.73-215.77zm403.27-699.02 344.19 198.72v-396.88l-344.19-198.72zm-403.27 198.72 344.19-198.72 4e-3 -396.88-344.19 198.72zm373.73-146.99-344.19 198.71 344.19 198.72 344.18-198.72zm432.8 215.21v466.21l-432.8 249.87-432.8-249.87 4e-3 -465.66v-0.554l-403.26-232.82v-499.77l432.8-249.88 403.26 232.83 403.26-232.83 432.8 249.88v499.77l-403.26 232.82" clip-path="url(#clipPath12)" fill="url(#linearGradient12)"/><g fill="#555288"><path d="m5.6184 6.4352h0.08709c0.044875 0 0.077766-0.00889 0.098702-0.026713 0.020936-0.017818 0.031404-0.044566 0.031404-0.080205 0-0.03614-0.01064-0.062207-0.031976-0.078161-0.021308-0.015931-0.055486-0.023885-0.10259-0.023885h-0.082628zm0 0.054565v0.22732h-0.063551v-0.54659h0.1499c0.067041 0 0.11658 0.01287 0.14861 0.038523 0.032004 0.025663 0.048021 0.064298 0.048021 0.11589 0 0.072272-0.036609 0.12113-0.10989 0.14656l0.14841 0.24562h-0.075135l-0.13237-0.22732h-0.114"/><path d="m6.0304 6.7171v-0.54659h0.063551v0.54659h-0.063551"/><path d="m6.3098 6.4475h0.057173c0.056344 0 0.097072-0.0091 0.12227-0.027282 0.025169-0.01819 0.037753-0.047372 0.037753-0.08749 0-0.036132-0.011841-0.063034-0.035522-0.080743-0.023682-0.017672-0.060548-0.026544-0.11066-0.026544h-0.071016zm0.28298-0.11774c0 0.055314-0.018877 0.097889-0.05663 0.12767-0.037753 0.029805-0.091781 0.044677-0.16205 0.044677h-0.064295v0.21496h-0.063552v-0.54659h0.14166c0.1366 0 0.20487 0.053115 0.20487 0.15928"/><path d="m7.0141 6.7171h-0.30469v-0.54659h0.30469v0.056455h-0.24111v0.1761h0.22652v0.056063h-0.22652v0.20112h0.24111v0.056856"/><path d="m7.7657 6.7171h-0.072532l-0.29871-0.4587h-0.00297c0.00398 0.053796 0.00598 0.10316 0.00598 0.14801v0.31069h-0.058696v-0.54659h0.07176l0.29797 0.45687h3e-3c-5.148e-4 -0.00672-0.00163-0.028344-0.00337-0.06489-0.00174-0.036498-0.00237-0.062607-0.00189-0.078318v-0.31366h0.059461v0.54659"/><path d="m8.2229 6.7171h-0.30469v-0.54659h0.30469v0.056455h-0.24114v0.1761h0.22655v0.056063h-0.22655v0.20112h0.24114v0.056856"/><path d="m8.5146 6.7171h-0.063552v-0.49014h-0.17309v-0.056455h0.40974v0.056455h-0.17309v0.49014"/><path d="m9.2492 6.7171h-0.062808l-0.11029-0.366c-0.00523-0.016222-0.011097-0.036643-0.017561-0.061323-0.00649-0.024657-0.00987-0.039495-0.010096-0.044477-0.00549 0.032891-0.014215 0.068931-0.02617 0.10802l-0.10694 0.36378h-0.062779l-0.14544-0.54659h0.067298l0.086346 0.3376c0.011984 0.047334 0.020679 0.090204 0.02617 0.12859 0.00672-0.045616 0.016703-0.090204 0.029917-0.13385l0.09793-0.33234h0.067298l0.10282 0.33537c0.011955 0.038611 0.022051 0.082228 0.030288 0.13083 0.00472-0.035382 0.0137-0.078507 0.026913-0.12933l0.085975-0.33687h0.067298l-0.14618 0.54659"/><path d="m9.5222 6.4431c0 0.073982 0.01573 0.13013 0.047277 0.1684 0.031518 0.038265 0.077337 0.057371 0.1374 0.057371 0.060548 0 0.10628-0.019048 0.1372-0.057202 0.030889-0.038119 0.046362-0.094329 0.046362-0.16857 0-0.073536-0.015387-0.12931-0.046191-0.16732-0.030775-0.038019-0.076336-0.056999-0.13663-0.056999-0.060577 0-0.10662 0.019125-0.13814 0.057368-0.031547 0.038265-0.047277 0.093891-0.047276 0.16695zm0.43551 0c0 0.087456-0.022109 0.15624-0.066354 0.20633-0.044246 0.050106-0.10574 0.075155-0.18448 0.075155-0.080512 0-0.14263-0.024588-0.18636-0.073848-0.04376-0.049191-0.065611-0.11869-0.065611-0.20841 0-0.088989 0.021908-0.15794 0.065782-0.2069 0.043874-0.049002 0.10617-0.073481 0.18694-0.073481 0.07851 0 0.1398 0.024937 0.18393 0.074766 0.044103 0.049851 0.066154 0.11864 0.066154 0.20638"/><path d="m10.145 6.4352h0.08712c0.04485 0 0.07777-0.00889 0.0987-0.026713 0.02096-0.017818 0.0314-0.044566 0.0314-0.080205 0-0.03614-0.01067-0.062207-0.03195-0.078161-0.02134-0.015931-0.05554-0.023885-0.10265-0.023885h-0.08263zm0 0.054565v0.22732h-0.06355v-0.54659h0.14993c0.06704 0 0.11655 0.01287 0.14861 0.038523 0.03201 0.025663 0.04805 0.064298 0.04805 0.11589 0 0.072272-0.03667 0.12113-0.10994 0.14656l0.14841 0.24562h-0.07514l-0.13233-0.22732h-0.11403"/><path d="m10.952 6.7171h-0.07476l-0.19926-0.26507-0.0572 0.050824v0.21425h-0.06358v-0.54659h0.06358v0.27105l0.24786-0.27105h0.07513l-0.21983 0.23741 0.22806 0.30918"/><path d="m11.465 6.2195c-0.06006 0-0.10748 0.020001-0.14226 0.060007-0.03475 0.039984-0.05214 0.094752-0.05214 0.16431 0 0.071537 0.01676 0.12679 0.05028 0.16581 0.03352 0.03898 0.08134 0.058509 0.14338 0.058509 0.03815 0 0.08163-0.00686 0.13048-0.02059v0.055715c-0.0379 0.014189-0.08463 0.021305-0.1402 0.021305-0.08051 0-0.14263-0.024422-0.18636-0.073278-0.04373-0.048845-0.06561-0.11826-0.06561-0.20821 0-0.056352 0.01052-0.10569 0.0316-0.14806 0.02105-0.042366 0.05145-0.075 0.09121-0.097935 0.03975-0.022938 0.08655-0.034413 0.14037-0.034413 0.05732 0 0.10743 0.010468 0.1503 0.031407l-0.02691 0.054599c-0.04139-0.01944-0.08277-0.029173-0.12413-0.029173"/><path d="m11.755 6.4431c0 0.073982 0.01579 0.13013 0.04734 0.1684 0.03149 0.038265 0.07731 0.057371 0.13734 0.057371 0.06061 0 0.10631-0.019048 0.13723-0.057202 0.03089-0.038119 0.04633-0.094329 0.04633-0.16857 0-0.073536-0.01539-0.12931-0.04616-0.16732-0.03077-0.038019-0.07631-0.056999-0.13663-0.056999-0.06055 0-0.10662 0.019125-0.13811 0.057368-0.03155 0.038265-0.04734 0.093891-0.04734 0.16695zm0.43556 0c0 0.087456-0.02211 0.15624-0.06635 0.20633-0.04425 0.050106-0.10577 0.075155-0.18453 0.075155-0.08048 0-0.1426-0.024588-0.18634-0.073848-0.04373-0.049191-0.06561-0.11869-0.06561-0.20841 0-0.088989 0.02194-0.15794 0.06581-0.2069 0.04384-0.049002 0.10617-0.073481 0.18691-0.073481 0.07851 0 0.13983 0.024937 0.18393 0.074766 0.0441 0.049851 0.06618 0.11864 0.06618 0.20638"/><path d="m12.354 6.4431c0 0.073982 0.01579 0.13013 0.04731 0.1684 0.03152 0.038265 0.07734 0.057371 0.13737 0.057371 0.06058 0 0.10631-0.019048 0.13723-0.057202 0.03089-0.038119 0.04633-0.094329 0.04633-0.16857 0-0.073536-0.01539-0.12931-0.04616-0.16732-0.03078-0.038019-0.07631-0.056999-0.13663-0.056999-0.06058 0-0.10662 0.019125-0.13814 0.057368-0.03152 0.038265-0.04731 0.093891-0.04731 0.16695zm0.43556 0c0 0.087456-0.02214 0.15624-0.06638 0.20633-0.04425 0.050106-0.10574 0.075155-0.1845 0.075155-0.08048 0-0.1426-0.024588-0.18634-0.073848-0.04376-0.049191-0.06561-0.11869-0.06561-0.20841 0-0.088989 0.02191-0.15794 0.06578-0.2069 0.04387-0.049002 0.10617-0.073481 0.18694-0.073481 0.07851 0 0.1398 0.024937 0.18393 0.074766 0.0441 0.049851 0.06618 0.11864 0.06618 0.20638"/><path d="m12.977 6.4352h0.08709c0.04487 0 0.07777-0.00889 0.0987-0.026713 0.02097-0.017818 0.0314-0.044566 0.0314-0.080205 0-0.03614-0.01064-0.062207-0.03195-0.078161-0.02131-0.015931-0.05554-0.023885-0.10262-0.023885h-0.08263zm0 0.054565v0.22732h-0.06358v-0.54659h0.14996c0.06701 0 0.11655 0.01287 0.14858 0.038523 0.03203 0.025663 0.04805 0.064298 0.04805 0.11589 0 0.072272-0.03667 0.12113-0.10991 0.14656l0.14841 0.24562h-0.075163l-0.13234-0.22732h-0.114"/><path d="m13.758 6.4408c0-0.071268-0.01788-0.12498-0.05366-0.1611-0.03575-0.036151-0.08892-0.05423-0.15942-0.05423h-0.09235v0.43666h0.07737c0.07579 0 0.13274-0.018645 0.17086-0.055895 0.03815-0.037258 0.0572-0.092404 0.0572-0.16543zm0.06727-0.00226c0 0.090273-0.02445 0.15923-0.07345 0.20696-0.04897 0.047738-0.11944 0.071591-0.21142 0.071591h-0.15141v-0.54659h0.16752c0.08497 0 0.15101 0.023564 0.19815 0.070676 0.04708 0.047068 0.07062 0.11288 0.07062 0.19737"/><path d="m13.949 6.7171v-0.54659h0.06358v0.54659h-0.06358"/><path d="m14.592 6.7171h-0.07253l-0.29871-0.4587h-3e-3c0.0039 0.053796 6e-3 0.10316 6e-3 0.14801v0.31069h-0.05872v-0.54659h0.07179l0.29797 0.45687h3e-3c-4.86e-4 -0.00672-0.0016-0.028344-0.0033-0.06489-0.0017-0.036498-0.0024-0.062607-0.0019-0.078318v-0.31366h0.05943v0.54659"/><path d="m15 6.4861-0.06358-0.16934c-0.0082-0.021451-0.01667-0.047741-0.0254-0.078887-0.0055 0.023907-0.01333 0.050217-0.02354 0.078887l-0.0643 0.16934zm0.08783 0.23104-0.06801-0.17384h-0.21911l-0.06727 0.17384h-0.0643l0.21605-0.54883h0.05348l0.21496 0.54883h-0.06581"/><path d="m15.4 6.7171h-0.06358v-0.49014h-0.17306v-0.056455h0.40974v0.056455h-0.17309v0.49014"/><path d="m15.657 6.7171v-0.54659h0.06358v0.54659h-0.06358"/><path d="m15.912 6.4431c0 0.073982 0.01579 0.13013 0.04734 0.1684 0.03149 0.038265 0.07731 0.057371 0.13734 0.057371 0.06058 0 0.10631-0.019048 0.13723-0.057202 0.03089-0.038119 0.04633-0.094329 0.04633-0.16857 0-0.073536-0.01539-0.12931-0.04616-0.16732-0.03077-0.038019-0.07631-0.056999-0.13663-0.056999-0.06058 0-0.10662 0.019125-0.13811 0.057368-0.03155 0.038265-0.04734 0.093891-0.04734 0.16695zm0.43556 0c0 0.087456-0.02214 0.15624-0.06638 0.20633-0.04422 0.050106-0.10574 0.075155-0.1845 0.075155-0.08048 0-0.1426-0.024588-0.18634-0.073848-0.04376-0.049191-0.06561-0.11869-0.06561-0.20841 0-0.088989 0.02191-0.15794 0.06578-0.2069 0.04387-0.049002 0.10617-0.073481 0.18694-0.073481 0.07851 0 0.1398 0.024937 0.18393 0.074766 0.0441 0.049851 0.06618 0.11864 0.06618 0.20638"/><path d="m16.899 6.7171h-0.07253l-0.29868-0.4587h-3e-3c4e-3 0.053796 6e-3 0.10316 6e-3 0.14801v0.31069h-0.05869v-0.54659h0.07176l0.29796 0.45687h3e-3c-5.15e-4 -0.00672-0.0016-0.028344-0.0033-0.06489-0.0018-0.036498-0.0024-0.062607-0.0019-0.078318v-0.31366h0.05943v0.54659"/><path d="m17.486 6.2195c-0.06006 0-0.10748 0.020001-0.14226 0.060007-0.03472 0.039984-0.05214 0.094752-0.05214 0.16431 0 0.071537 0.01676 0.12679 0.05028 0.16581 0.03352 0.03898 0.08134 0.058509 0.14338 0.058509 0.03815 0 0.08163-0.00686 0.13048-0.02059v0.055715c-0.0379 0.014189-0.08463 0.021305-0.1402 0.021305-0.08051 0-0.1426-0.024422-0.18636-0.073278-0.04373-0.048845-0.06561-0.11826-0.06561-0.20821 0-0.056352 0.01052-0.10569 0.0316-0.14806 0.02105-0.042366 0.05148-0.075 0.09121-0.097935 0.03975-0.022938 0.08657-0.034413 0.14037-0.034413 0.05732 0 0.10742 0.010468 0.1503 0.031407l-0.02691 0.054599c-0.04136-0.01944-0.08277-0.029173-0.12413-0.029173"/><path d="m18.042 6.7171h-0.30472v-0.54659h0.30472v0.056455h-0.24114v0.1761h0.22655v0.056063h-0.22655v0.20112h0.24114v0.056856"/><path d="m18.593 6.7171h-0.07253l-0.29871-0.4587h-3e-3c0.0039 0.053796 6e-3 0.10316 6e-3 0.14801v0.31069h-0.05872v-0.54659h0.07179l0.29796 0.45687h3e-3c-4.86e-4 -0.00672-0.0016-0.028344-0.0033-0.06489-0.0018-0.036498-0.0024-0.062607-0.0019-0.078318v-0.31366h0.05943v0.54659"/><path d="m18.914 6.7171h-0.063552v-0.49014h-0.17309v-0.056455h0.40974v0.056455h-0.17309v0.49014"/><path d="m19.235 6.4352h0.08709c0.04487 0 0.07777-0.00889 0.0987-0.026713 0.02094-0.017818 0.0314-0.044566 0.0314-0.080205 0-0.03614-0.01064-0.062207-0.03195-0.078161-0.02134-0.015931-0.05554-0.023885-0.10262-0.023885h-0.08263zm0 0.054565v0.22732h-0.06358v-0.54659h0.14996c0.06701 0 0.11655 0.01287 0.14858 0.038523 0.03203 0.025663 0.04805 0.064298 0.04805 0.11589 0 0.072272-0.03667 0.12113-0.10991 0.14656l0.14841 0.24562h-0.07516l-0.13234-0.22732h-0.114"/><path d="m19.952 6.7171h-0.30472v-0.54659h0.30472v0.056455h-0.24114v0.1761h0.22655v0.056063h-0.22655v0.20112h0.24114v0.056856"/></g></g></svg>
